<svg width="71" height="42" viewBox="0 0 71 42" fill="none" xmlns="http://www.w3.org/2000/svg">
<path d="M19.875 15.2183C19.875 16.0794 19.9684 16.7775 20.1311 17.2894C20.3378 17.8654 20.5866 18.4254 20.8756 18.9648C20.992 19.1509 21.0384 19.337 21.0384 19.5001C21.0384 19.7326 20.899 19.9654 20.5964 20.1981L19.1306 21.1754C18.9211 21.3151 18.7117 21.3848 18.5253 21.3848C18.2928 21.3848 18.06 21.2685 17.8272 21.059C17.5137 20.7221 17.2332 20.3558 16.9897 19.9654C16.7569 19.5701 16.5241 19.1276 16.2682 18.5925C14.4532 20.7332 12.1726 21.8037 9.42691 21.8037C7.4724 21.8037 5.91319 21.2451 4.77287 20.1284C3.63283 19.0112 3.05115 17.5219 3.05115 15.6605C3.05115 13.6826 3.74923 12.077 5.16872 10.867C6.58793 9.65696 8.47299 9.05194 10.8697 9.05194C11.6609 9.05194 12.4753 9.12167 13.3362 9.23806C14.1973 9.35445 15.0815 9.54057 16.0124 9.75002V8.05136C16.0124 6.28269 15.6399 5.04959 14.9185 4.32818C14.174 3.60677 12.9173 3.25759 11.1256 3.25759C10.3111 3.25759 9.47358 3.35092 8.61244 3.56037C7.75158 3.76955 6.91378 4.02567 6.0993 4.35151C5.72707 4.5143 5.44789 4.60736 5.28483 4.65402C5.12205 4.70069 5.00566 4.72375 4.9126 4.72375C4.58676 4.72375 4.42397 4.49096 4.42397 4.00234V2.86202C4.42397 2.48979 4.47064 2.21061 4.58676 2.04783C4.70315 1.88477 4.9126 1.72198 5.23844 1.5592C6.05291 1.1403 7.03017 0.791119 8.17021 0.511943C9.3108 0.209433 10.5208 0.0699821 11.8006 0.0699821C14.5699 0.0699821 16.5944 0.69806 17.8975 1.95477C19.1772 3.2112 19.8289 5.11932 19.8289 7.67912V15.2183H19.8756H19.875ZM10.4275 18.7553C11.1956 18.7553 11.9867 18.6159 12.8242 18.3364C13.6621 18.0572 14.4068 17.5453 15.0349 16.8472C15.4074 16.4052 15.6866 15.9166 15.826 15.358C15.9657 14.7996 16.0588 14.1246 16.0588 13.3335V12.3562C15.3531 12.1845 14.6384 12.0524 13.9179 11.9606C13.1924 11.8685 12.4619 11.8218 11.7306 11.8209C10.1714 11.8209 9.03134 12.1234 8.26354 12.7518C7.49546 13.3801 7.12323 14.2643 7.12323 15.4277C7.12323 16.5214 7.4024 17.3358 7.98409 17.8945C8.54272 18.4761 9.35719 18.7553 10.4275 18.7553ZM29.1131 21.2685C28.6942 21.2685 28.415 21.1987 28.2289 21.0357C28.0428 20.8962 27.8797 20.5704 27.7403 20.1284L22.272 2.14088C22.132 1.67532 22.0623 1.37281 22.0623 1.21002C22.0623 0.837786 22.2484 0.628061 22.621 0.628061H24.9013C25.3433 0.628061 25.6461 0.698061 25.8088 0.860845C25.995 1.00057 26.1347 1.32641 26.2741 1.76837L30.1834 17.173L33.8135 1.76837C33.9299 1.30308 34.0697 1.00057 34.2555 0.860845C34.4419 0.721394 34.7677 0.628335 35.1866 0.628335H37.0481C37.4901 0.628335 37.7928 0.698061 37.9787 0.860845C38.1651 1.00057 38.3279 1.32641 38.4209 1.76837L42.0977 17.3592L46.1231 1.76837C46.2626 1.30308 46.4256 1.00057 46.5884 0.860845C46.7745 0.721394 47.077 0.628335 47.4959 0.628335H49.6599C50.0324 0.628335 50.2419 0.814453 50.2419 1.21002C50.2419 1.32641 50.2185 1.44281 50.1952 1.58226C50.1719 1.72198 50.1255 1.9081 50.0324 2.16422L44.4242 20.1515C44.2847 20.617 44.1219 20.9196 43.9355 21.059C43.7494 21.1987 43.4469 21.2918 43.0516 21.2918H41.0504C40.6082 21.2918 40.3057 21.2221 40.1193 21.059C39.9332 20.8962 39.7704 20.5937 39.6773 20.1284L36.0703 5.11932L32.4868 20.1048C32.3707 20.5704 32.231 20.8729 32.0449 21.0357C31.8588 21.1987 31.5329 21.2685 31.1143 21.2685H29.1128H29.1131ZM59.0146 21.8968C57.8046 21.8968 56.5946 21.7571 55.4312 21.4779C54.2675 21.1987 53.3603 20.8959 52.7553 20.5473C52.3828 20.3376 52.1266 20.1051 52.0339 19.8956C51.9432 19.6902 51.8957 19.4684 51.8941 19.2439V18.0572C51.8941 17.5686 52.0802 17.3358 52.4294 17.3358C52.5719 17.3364 52.7134 17.36 52.8483 17.4058C52.9878 17.4525 53.1972 17.5453 53.43 17.6383C54.2519 17.9998 55.1099 18.2729 55.9895 18.4528C56.901 18.6378 57.8287 18.7313 58.7588 18.732C60.2247 18.732 61.365 18.4761 62.1561 17.9642C62.9473 17.4522 63.3662 16.7077 63.3662 15.7536C63.3662 15.1021 63.1567 14.5668 62.7378 14.1246C62.3189 13.6826 61.5278 13.2871 60.3877 12.9146L57.0135 11.8676C55.3148 11.3323 54.0584 10.5412 53.2903 9.4939C52.5225 8.46998 52.1269 7.32994 52.1269 6.1199C52.1269 5.14265 52.3364 4.28151 52.7553 3.53677C53.1739 2.7923 53.7325 2.14088 54.4306 1.62892C55.1287 1.09363 55.9198 0.698061 56.8507 0.418884C57.7813 0.139708 58.7585 0.0233154 59.7824 0.0233154C60.2944 0.0233154 60.8297 0.0466488 61.3417 0.116374C61.877 0.1861 62.3656 0.279159 62.8542 0.372217C63.3195 0.48861 63.7617 0.605002 64.1806 0.744727C64.5995 0.884178 64.9251 1.0239 65.1579 1.16335C65.4837 1.34975 65.7162 1.53586 65.856 1.74532C65.9957 1.93143 66.0654 2.18728 66.0654 2.51312V3.60677C66.0654 4.09539 65.8793 4.35151 65.5301 4.35151C65.344 4.35151 65.0415 4.25818 64.6462 4.07206C63.3195 3.46704 61.8303 3.16453 60.1783 3.16453C58.8519 3.16453 57.8046 3.37398 57.0832 3.81622C56.3621 4.25818 55.9895 4.9332 55.9895 5.88712C55.9895 6.53881 56.2223 7.09716 56.6876 7.53939C57.1532 7.98136 58.0141 8.42359 59.2474 8.81916L62.5517 9.86642C64.227 10.4017 65.4371 11.1462 66.1585 12.1001C66.8799 13.0543 67.2291 14.1479 67.2291 15.358C67.2291 16.3586 67.0193 17.2661 66.6238 18.0572C66.2052 18.8484 65.6465 19.5465 64.9251 20.1051C64.2037 20.6868 63.3428 21.1057 62.3422 21.4082C61.295 21.734 60.2013 21.8968 59.0146 21.8968Z" fill="#252F3E"/>
<path d="M63.4126 33.2058C55.7571 38.8605 44.634 41.8622 35.0703 41.8622C21.6668 41.8622 9.59004 36.9057 0.468349 28.6682C-0.253063 28.0168 0.398349 27.1326 1.25921 27.6443C11.1256 33.3689 23.2958 36.8359 35.8848 36.8359C44.3781 36.8359 53.7093 35.0676 62.2959 31.4374C63.5757 30.8555 64.6693 32.2752 63.4126 33.2058ZM66.6008 29.5757C65.6235 28.3193 60.1317 28.9707 57.6419 29.2732C56.8971 29.3665 56.7807 28.7148 57.4558 28.2262C61.8303 25.1545 69.0209 26.0389 69.8584 27.0626C70.6962 28.1098 69.6256 35.3001 65.5302 38.7441C64.9021 39.2794 64.2971 39.0002 64.5763 38.3021C65.5069 35.9981 67.578 30.8091 66.6008 29.5757Z" fill="#FF9900"/>
</svg>
