<svg width="42" height="42" viewBox="0 0 42 42" fill="none" xmlns="http://www.w3.org/2000/svg">
<path d="M8.56554 33.4345L1.38026 26.2492C0.527953 25.3755 0 24.1403 0 22.933C0 22.374 0.315 21.5002 0.552727 21L7.18528 7.18528L8.56554 33.4345Z" fill="#01579B"/>
<path d="M33.1597 8.56554L25.9745 1.38026C25.3477 0.750258 24.0415 0 22.936 0C21.9851 0 21.0526 0.191461 20.4505 0.552727L7.18848 7.18528L33.1597 8.56554V8.56554ZM17.1312 42H34.54V34.5399L21.5528 30.3931L9.67107 34.5399L17.1312 42Z" fill="#40C4FF"/>
<path d="M7.1853 29.5655C7.1853 31.7825 7.46322 32.3261 8.56556 33.4345L9.67101 34.5399H34.5399L22.3834 20.7252L7.1853 7.18512V29.5657V29.5655Z" fill="#29B6F6"/>
<path d="M29.2908 7.18217H7.1853L34.5399 34.5368H42V17.4059L33.1566 8.56242C31.9153 7.31801 30.8129 7.18217 29.2908 7.18217V7.18217Z" fill="#01579B"/>
<path opacity="0.2" d="M8.84357 33.7093C7.73812 32.6009 7.46331 31.5077 7.46331 29.5655V7.45992L7.18851 7.18512V29.5654C7.18522 31.5075 7.18522 32.0449 8.84357 33.7091L9.6711 34.5366L8.84357 33.7091V33.7093Z" fill="white"/>
<path opacity="0.2" d="M41.7252 17.1311V34.262H34.2651L34.5399 34.5399H42V17.4059L41.7252 17.1311Z" fill="#263238"/>
<path opacity="0.2" d="M33.1597 8.56554C31.7888 7.19447 30.668 7.18528 29.016 7.18528H7.18848L7.46328 7.46008H29.016C29.8404 7.46008 31.9216 7.32112 33.1597 8.56554V8.56554Z" fill="white"/>
<path opacity="0.2" d="M41.7252 17.1311L33.1596 8.56538L25.9744 1.38042C25.3476 0.750258 24.0414 0 22.9359 0C21.985 0 21.0525 0.191461 20.4504 0.552727L7.18837 7.18528L0.55582 21C0.31793 21.5033 0.00292969 22.3771 0.00292969 22.933C0.00292969 24.1403 0.534164 25.3723 1.38335 26.2492L8.00344 32.8232C8.16094 33.0176 8.34633 33.2153 8.56552 33.4345L8.84032 33.7093L9.66785 34.5368L16.8531 41.7221L17.1279 41.9969H34.5335V34.537H41.9936V17.4057L41.725 17.1309L41.7252 17.1311Z" fill="url(#paint0_radial_311_32)"/>
<defs>
<radialGradient id="paint0_radial_311_32" cx="0" cy="0" r="1" gradientUnits="userSpaceOnUse" gradientTransform="translate(20.9983 20.9961) scale(20.997 20.997)">
<stop stop-color="white" stop-opacity="0.1"/>
<stop offset="1" stop-color="white" stop-opacity="0"/>
</radialGradient>
</defs>
</svg>
