<svg width="40" height="42" viewBox="0 0 40 42" fill="none" xmlns="http://www.w3.org/2000/svg">
<g clip-path="url(#clip0_312_434)">
<path d="M14.5218 8.94069C15.5136 9.12371 15.2378 10.6189 14.2459 10.4359C6.37939 8.97392 0.867955 12.0828 5.04039 19.7808C5.53906 20.655 4.21614 21.4095 3.71756 20.5352C-1.2505 11.8322 5.19158 7.17382 14.5218 8.94061V8.94069ZM34.3615 23.7024C41.3936 15.1032 38.2968 8.7083 29.8416 8.60371C28.8373 8.59059 28.8188 10.1108 29.823 10.1239C37.3073 10.0919 39.088 15.6285 33.1965 22.7228C32.5472 23.5123 33.7364 24.4525 34.3615 23.7023V23.7024ZM26.9646 37.19C27.4786 36.3368 26.199 35.5415 25.6601 36.4043C21.4056 43.1366 16.2053 41.0624 13.058 32.9444C12.7177 31.9772 11.2808 32.4828 11.621 33.4499C14.4054 41.954 21.7894 45.7007 26.9646 37.19V37.19ZM22.3044 22.0465C22.3044 20.4062 20.5166 19.3755 19.094 20.1956C17.6713 21.0158 17.6713 23.0773 19.094 23.8975C20.5166 24.7176 22.3044 23.6869 22.3044 22.0465ZM3.6137 28.9568C3.8616 22.1992 13.7054 13.5795 25.3138 10.6134C26.3105 10.3967 25.9876 8.91108 24.9907 9.12781C14.2687 11.5016 1.54857 21.033 2.08325 29.3747C0.224748 30.4963 0.244107 33.2187 2.14026 34.3079C4.05544 35.408 6.46224 34.0254 6.46224 31.8253C6.46224 30.1715 5.10241 28.9797 3.6137 28.9569V28.9568ZM35.1382 34.2258C36.5068 35.1162 38.4863 34.7084 39.2852 33.1101C40.2686 31.1428 38.7344 28.8307 36.5302 28.9584C34.4609 29.0782 33.2426 31.2657 34.1116 33.055C27.4258 35.9638 15.007 31.0968 7.70534 23.3601C7.03711 22.6229 5.90927 23.6451 6.57741 24.3824C13.5029 32.0403 27.5749 38.2326 35.1382 34.2258V34.2258ZM23.0444 2.86521C23.045 0.984238 21.1658 -0.474524 19.263 0.144238C17.1634 0.827148 16.5956 3.53213 18.2433 5.00172C19.6296 6.23793 21.717 5.82646 22.6138 4.3832C27.8091 7.81785 31.0331 19.5559 27.5978 31.9791C27.3007 32.9407 28.7564 33.3905 29.0535 32.4289C32.1749 22.3462 30.4863 7.41483 23.0444 2.86513V2.86521Z" fill="#2C77CF"/>
</g>
<defs>
<clipPath id="clip0_312_434">
<rect width="38.89" height="42" fill="white" transform="translate(0.700195)"/>
</clipPath>
</defs>
</svg>
