<svg width="31" height="42" viewBox="0 0 31 42" fill="none" xmlns="http://www.w3.org/2000/svg">
<g clip-path="url(#clip0_312_425)">
<path d="M0.00390625 33.863L0.25794 33.5074L12.2721 10.7108L12.2975 10.4695L7.00151 0.521452C6.55758 -0.311847 5.30835 -0.101129 5.16285 0.831726L0.00390625 33.863Z" fill="#FFC24A"/>
<path d="M16.1583 17.9941L20.1017 13.9556L16.1571 6.42555C15.7827 5.71274 14.7373 5.71059 14.3668 6.42555L12.2593 10.4445V10.7867L16.1582 17.9941H16.1583Z" fill="#F4BD62"/>
<path d="M0.00390625 33.863L0.119017 33.7472L0.537342 33.5773L15.9107 18.2611L16.1055 17.7309L12.2704 10.4229L0.00390625 33.863Z" fill="#F6820C"/>
<path d="M16.6509 41.5874L30.5641 33.8279L26.591 9.35845C26.4667 8.59288 25.5275 8.29026 24.9794 8.83913L0.00390625 33.8631L13.8373 41.5868C14.2673 41.8269 14.7516 41.953 15.244 41.9531C15.7365 41.9532 16.2208 41.8273 16.6509 41.5874" fill="#FDE068"/>
<path d="M30.4394 33.7626L26.4964 9.47899C26.3731 8.71916 25.592 8.40481 25.0482 8.94962L0.158203 33.8153L13.8398 41.4624C14.2665 41.7007 14.747 41.8258 15.2358 41.8259C15.7245 41.826 16.2051 41.7012 16.6319 41.4631L30.4395 33.7625L30.4394 33.7626Z" fill="#FCCA3F"/>
<path d="M16.6506 41.3586C16.2206 41.5985 15.7363 41.7243 15.2438 41.7242C14.7514 41.7241 14.2672 41.5981 13.8372 41.358L0.115188 33.7454L0.00390625 33.863L13.8372 41.5867C14.2672 41.8267 14.7514 41.9528 15.2439 41.9529C15.7364 41.953 16.2207 41.8272 16.6507 41.5873L30.564 33.8278L30.5299 33.6182L16.6507 41.3587L16.6506 41.3586Z" fill="#EEAB37"/>
</g>
<defs>
<clipPath id="clip0_312_425">
<rect width="30.64" height="42" fill="white"/>
</clipPath>
</defs>
</svg>
