<svg width="42" height="42" viewBox="0 0 42 42" fill="none" xmlns="http://www.w3.org/2000/svg">
<g clip-path="url(#clip0_312_432)">
<path d="M41.676 9.48502C41.6912 9.54086 41.699 9.59845 41.699 9.65636V18.6558C41.699 18.8909 41.5733 19.1081 41.3692 19.225L33.816 23.5741V32.1937C33.816 32.309 33.7857 32.4223 33.7282 32.5222C33.6706 32.6222 33.5877 32.7052 33.488 32.763L17.7208 41.8397C17.6847 41.86 17.6454 41.8731 17.6059 41.8872C17.5911 41.892 17.5773 41.9011 17.5617 41.9052C17.4515 41.9342 17.3356 41.9342 17.2254 41.9052C17.2072 41.9004 17.1908 41.8904 17.1737 41.8839C17.1375 41.8707 17.0998 41.8592 17.0655 41.8397L1.30148 32.7629C1.2013 32.7054 1.11807 32.6225 1.06016 32.5225C1.00226 32.4226 0.971739 32.3092 0.97168 32.1937V5.19529C0.97168 5.13611 0.979952 5.07868 0.994589 5.02299C0.999521 5.00406 1.01098 4.98688 1.01766 4.96795C1.02991 4.93358 1.04152 4.89827 1.0595 4.86629C1.07175 4.84497 1.08973 4.82779 1.10452 4.80806C1.12345 4.78181 1.14063 4.75477 1.16275 4.7317C1.18168 4.71293 1.20634 4.69893 1.22766 4.68254C1.25152 4.66281 1.27268 4.64149 1.29973 4.6259H1.30052L9.18284 0.0876755C9.28265 0.0302328 9.3958 0 9.51096 0C9.62613 0 9.73927 0.0302328 9.83909 0.0876755L17.7214 4.6259H17.723C17.7492 4.64245 17.7715 4.66281 17.7952 4.68174C17.8165 4.69813 17.8404 4.71293 17.8592 4.73106C17.8822 4.75477 17.8986 4.78197 17.9182 4.80806C17.9322 4.82779 17.9511 4.84497 17.9626 4.86629C17.9814 4.89906 17.992 4.93358 18.0052 4.96811C18.0117 4.98688 18.0232 5.00406 18.0281 5.02379C18.0432 5.07963 18.051 5.13738 18.0512 5.19529V22.058L24.6194 18.2759V9.65556C24.6194 9.59829 24.6277 9.5399 24.6425 9.48502C24.6482 9.46529 24.6589 9.44811 24.6654 9.42933C24.6786 9.39481 24.6901 9.35933 24.708 9.32752C24.7203 9.3062 24.7383 9.28902 24.7524 9.26929C24.772 9.24304 24.7884 9.21599 24.8113 9.19293C24.8304 9.17415 24.8541 9.16015 24.8754 9.14377C24.9001 9.12404 24.9214 9.10272 24.9476 9.08713H24.9484L32.8315 4.5489C32.9313 4.49138 33.0445 4.4611 33.1597 4.4611C33.2748 4.4611 33.388 4.49138 33.4878 4.5489L41.3701 9.08713C41.398 9.10352 41.4193 9.12404 41.4439 9.14281C41.4643 9.15936 41.4882 9.17415 41.5071 9.19213C41.53 9.21599 41.5464 9.24304 41.566 9.26929C41.5809 9.28902 41.5989 9.3062 41.6105 9.32752C41.6293 9.35933 41.6399 9.39481 41.653 9.42933C41.6605 9.44811 41.6711 9.46529 41.676 9.48502V9.48502ZM40.385 18.2761V10.7924L37.6265 12.3803L33.8158 14.5745V22.0581L40.3858 18.2761H40.385V18.2761ZM32.5027 31.8139V24.325L28.7542 26.4659L18.0504 32.575V40.134L32.5027 31.8136V31.8139ZM2.28561 6.3312V31.8139L16.7363 40.1334V32.5758L9.18713 28.3032L9.18475 28.3017L9.18157 28.3001C9.15611 28.2853 9.13463 28.2639 9.11093 28.246C9.09025 28.2294 9.06654 28.2164 9.04857 28.1982L9.04697 28.1959C9.02566 28.1753 9.01086 28.1499 8.99288 28.127C8.97634 28.1047 8.95677 28.0859 8.94357 28.063L8.94277 28.0605C8.92798 28.036 8.91891 28.0064 8.90825 27.9785C8.89759 27.9539 8.88375 27.9308 8.87707 27.9047V27.9039C8.86895 27.8727 8.86736 27.8398 8.86402 27.8078C8.86084 27.7833 8.85416 27.7587 8.85416 27.734V10.1134L5.04409 7.91829L2.28561 6.33215V6.3312ZM9.51184 1.41481L2.94425 5.19529L9.51025 8.97561L16.0769 5.19433L9.51025 1.41481H9.51184ZM12.9272 25.0077L16.7371 22.8144V6.3312L13.979 7.91924L10.1679 10.1133V26.5964L12.9272 25.0077V25.0077ZM33.1596 5.87604L26.593 9.65636L33.1596 13.4368L39.7254 9.65556L33.1597 5.87604H33.1596ZM32.5025 14.5745L28.6918 12.3803L25.9335 10.7924V18.2761L29.7434 20.4694L32.5027 22.0581V14.5745H32.5025ZM17.3926 31.4391L27.0244 25.9403L31.8391 23.1924L25.2773 19.4145L17.7222 23.7641L10.8364 27.7283L17.3926 31.4391Z" fill="#FF2D20"/>
</g>
<defs>
<clipPath id="clip0_312_432">
<rect width="40.73" height="42" fill="white" transform="translate(0.970215)"/>
</clipPath>
</defs>
</svg>
