<svg width="160" height="42" viewBox="0 0 160 42" fill="none" xmlns="http://www.w3.org/2000/svg">
<g clip-path="url(#clip0_312_90)">
<path d="M12.3482 4.29645C10.7304 2.37689 9.33693 0.427467 9.05257 0.0224005C9.0458 0.0153135 9.03767 0.00967242 9.02866 0.00581832C9.01965 0.00196421 9.00995 -2.28882e-05 9.00015 -2.28882e-05C8.99035 -2.28882e-05 8.98065 0.00196421 8.97164 0.00581832C8.96263 0.00967242 8.9545 0.0153135 8.94773 0.0224005C8.66306 0.427467 7.2699 2.37689 5.65213 4.29645C-8.23432 22.0068 7.83924 33.9584 7.83924 33.9584L7.97395 34.0486C8.09373 35.8929 8.39333 38.5473 8.39333 38.5473H9.59173C9.59173 38.5473 9.89133 35.9078 10.0111 34.0486L10.1461 33.9435C10.1611 33.9584 26.2343 22.0068 12.3482 4.29645V4.29645ZM8.99253 33.6887C8.99253 33.6887 8.27355 33.0736 8.07879 32.7591V32.7289L8.94773 13.444C8.94773 13.384 9.03764 13.384 9.03764 13.444L9.90626 32.7289V32.7591C9.7115 33.0736 8.99253 33.6887 8.99253 33.6887Z" fill="#01EC64"/>
<path d="M39.073 29.7534L32.3748 13.3943L32.3602 13.3492H27.149V14.4486H27.9897C28.2451 14.4486 28.4853 14.5544 28.6657 14.7348C28.8458 14.9156 28.9361 15.1567 28.9361 15.4131L28.7858 31.8771C28.7858 32.3895 28.3655 32.811 27.8546 32.8263L26.9988 32.8412V33.9257H32.0749V32.8412L31.5491 32.8263C31.0386 32.811 30.6179 32.3895 30.6179 31.8774V16.3613L37.9166 33.9254C38.0218 34.1815 38.2619 34.3473 38.5326 34.3473C38.8026 34.3473 39.0428 34.1815 39.148 33.9254L46.2818 16.753L46.3869 31.8771C46.3869 32.4041 45.9663 32.826 45.4405 32.8409H44.8998V33.9254H50.847V32.8409H50.0359C49.5257 32.8409 49.1048 32.4041 49.0902 31.892L49.0447 15.4274C49.0445 15.1773 49.1415 14.9369 49.3153 14.7571C49.4891 14.5772 49.7259 14.472 49.9759 14.4636L50.847 14.4483V13.3488H45.7709L39.0727 29.7531L39.073 29.7534ZM85.7748 32.5547C85.6093 32.3888 85.5188 32.1627 85.5188 31.8908V23.8031C85.5188 22.264 85.0674 21.0566 84.1639 20.1967C83.2754 19.3365 82.0409 18.8991 80.5052 18.8991C78.3517 18.8991 76.6506 19.7742 75.4609 21.4944C75.4459 21.5245 75.4008 21.5398 75.3557 21.5398C75.3103 21.5398 75.2804 21.5093 75.2804 21.4642L74.7232 19.3063H73.7896L71.3956 20.6796V21.434H72.0128C72.299 21.434 72.5398 21.5093 72.7057 21.6605C72.8712 21.8114 72.9614 22.0376 72.9614 22.3543V31.8758C72.9614 32.1474 72.8712 32.3739 72.7057 32.54C72.5398 32.7059 72.314 32.7964 72.043 32.7964H71.4407V33.8977H76.9514V32.7964H76.3494C76.0781 32.7964 75.8522 32.7059 75.6867 32.54C75.5212 32.3739 75.4307 32.1474 75.4307 31.8758V25.5684C75.4307 24.7688 75.6114 23.9689 75.9428 23.184C76.289 22.4146 76.8008 21.7656 77.4784 21.2676C78.156 20.7698 78.9693 20.5284 79.9026 20.5284C80.9566 20.5284 81.7546 20.8603 82.2515 21.5242C82.7483 22.1881 83.0044 23.0484 83.0044 24.0744V31.8606C83.0044 32.1322 82.9142 32.3584 82.7483 32.5245C82.5828 32.6906 82.357 32.7808 82.0857 32.7808H81.4837V33.8825H86.9944V32.7812H86.3924C86.1665 32.8113 85.9556 32.7208 85.7748 32.5547V32.5547ZM136.123 14.5808C134.6 13.7698 132.897 13.3488 131.06 13.3488H123.892V14.4455H124.594C124.863 14.4455 125.101 14.5507 125.34 14.7908C125.564 15.0164 125.684 15.2718 125.684 15.5422V31.7044C125.684 31.9751 125.565 32.2302 125.34 32.4557C125.116 32.681 124.863 32.8011 124.594 32.8011H123.892V33.8977H131.06C132.897 33.8977 134.6 33.4771 136.123 32.6657C137.646 31.8547 138.886 30.6528 139.782 29.1209C140.678 27.589 141.141 25.7413 141.141 23.6382C141.141 21.5354 140.678 19.7027 139.782 18.1558C138.871 16.5937 137.646 15.4068 136.123 14.5808H136.123ZM138.259 23.6084C138.259 25.531 137.915 27.1532 137.243 28.4601C136.571 29.7668 135.675 30.7431 134.57 31.3743C133.465 32.0049 132.24 32.3204 130.926 32.3204H129.477C129.208 32.3204 128.969 32.2152 128.731 31.9751C128.507 31.7495 128.387 31.4944 128.387 31.224V15.9777C128.387 15.7071 128.492 15.4672 128.731 15.2267C128.955 15.0015 129.208 14.8814 129.477 14.8814H130.926C132.24 14.8814 133.464 15.1965 134.57 15.8275C135.675 16.4584 136.571 17.4347 137.243 18.7416C137.915 20.0632 138.259 21.7006 138.259 23.6084ZM158.085 24.705C157.422 23.9388 156.143 23.2929 154.638 22.9472C156.716 21.9109 157.783 20.454 157.783 18.5761C157.783 17.5551 157.514 16.6385 156.971 15.8576C156.429 15.0768 155.661 14.4455 154.683 14.01C153.704 13.5744 152.559 13.3492 151.265 13.3492H143.151V14.4455H143.798C144.069 14.4455 144.31 14.5507 144.551 14.7908C144.777 15.0164 144.897 15.2718 144.897 15.5422V31.7044C144.897 31.9751 144.777 32.2302 144.551 32.4557C144.325 32.681 144.069 32.8011 143.798 32.8011H143.091V33.8977H151.898C153.237 33.8977 154.487 33.6725 155.616 33.2217C156.745 32.7712 157.649 32.1101 158.296 31.239C158.958 30.3679 159.289 29.3011 159.289 28.0694C159.275 26.7478 158.883 25.6209 158.085 24.705V24.705ZM147.983 31.99C147.757 31.7648 147.637 31.5093 147.637 31.239V23.9836H151.823C153.297 23.9836 154.426 24.3591 155.21 25.1098C155.992 25.8611 156.384 26.8374 156.384 28.0392C156.384 28.76 156.202 29.4663 155.873 30.1121C155.526 30.7729 155.013 31.2987 154.322 31.7044C153.643 32.1098 152.801 32.3204 151.823 32.3204H148.736C148.465 32.3204 148.224 32.2149 147.983 31.9897L147.983 31.99ZM147.652 22.4367V15.9927C147.652 15.7223 147.757 15.4821 147.998 15.2416C148.224 15.0164 148.48 14.8963 148.751 14.8963H150.739C152.168 14.8963 153.222 15.2569 153.885 15.9479C154.547 16.6538 154.878 17.5551 154.878 18.6664C154.878 19.8081 154.562 20.7244 153.945 21.4153C153.327 22.0911 152.394 22.4367 151.16 22.4367H147.652V22.4367ZM64.7957 19.8567C63.6452 19.2282 62.3603 18.8984 60.9709 18.8984C59.6182 18.8984 58.3504 19.1968 57.2363 19.8069L57.1464 19.8567C55.9959 20.4854 55.0846 21.3985 54.4123 22.5512C53.7403 23.7039 53.3966 25.0513 53.3966 26.548C53.3966 28.0451 53.74 29.3925 54.4123 30.5452C55.0846 31.6979 55.9959 32.611 57.1464 33.2394C58.2969 33.8682 59.5818 34.1976 60.9709 34.1976C62.3239 34.1976 63.5917 33.8996 64.7054 33.2898L64.7957 33.2397C65.9458 32.611 66.8574 31.6979 67.5297 30.5452C68.2017 29.3925 68.5455 28.0451 68.5455 26.548C68.5455 25.0513 68.2017 23.7039 67.5297 22.5512C66.8574 21.3985 65.9462 20.4854 64.7957 19.857V19.8567ZM65.901 26.548C65.901 28.3895 65.453 29.8863 64.5564 30.9643C63.675 32.042 62.4651 32.5957 60.9709 32.5957C59.5037 32.5957 58.3102 32.0616 57.4329 31.0215L57.3856 30.9643C56.489 29.8863 56.0407 28.3895 56.0407 26.548C56.0407 24.7405 56.4731 23.2646 57.3371 22.1912L57.3856 22.1321C58.2667 21.0544 59.4772 20.5004 60.9709 20.5004C62.4651 20.5004 63.675 21.0541 64.5564 22.1321C65.453 23.2101 65.901 24.7069 65.901 26.548ZM117.742 19.8567C116.591 19.2282 115.307 18.8984 113.917 18.8984C112.565 18.8984 111.297 19.1968 110.183 19.8069L110.093 19.8567C108.942 20.4854 108.031 21.3985 107.359 22.5512C106.686 23.7039 106.343 25.0513 106.343 26.548C106.343 28.0451 106.686 29.3925 107.359 30.5452C108.031 31.6979 108.942 32.611 110.093 33.2394C111.243 33.8682 112.528 34.1976 113.917 34.1976C115.27 34.1976 116.538 33.8996 117.652 33.2898L117.742 33.2397C118.892 32.611 119.804 31.6979 120.476 30.5452C121.148 29.3925 121.492 28.0451 121.492 26.548C121.492 25.0513 121.148 23.7039 120.476 22.5512C119.804 21.3985 118.877 20.4854 117.742 19.857V19.8567ZM118.847 26.548C118.847 28.3895 118.399 29.8863 117.503 30.9643C116.621 32.042 115.411 32.5957 113.917 32.5957C112.45 32.5957 111.256 32.0616 110.379 31.0215L110.332 30.9643C109.435 29.8863 108.987 28.3895 108.987 26.548C108.987 24.7256 109.419 23.264 110.283 22.1912L110.332 22.1321C111.213 21.0544 112.423 20.5004 113.917 20.5004C115.411 20.5004 116.621 21.0541 117.503 22.1321C118.384 23.2101 118.847 24.7069 118.847 26.548V26.548ZM96.3896 18.8988C95.1856 18.8988 94.0874 19.1542 93.0943 19.6656C92.1013 20.1768 91.3188 20.8687 90.7622 21.756C90.2086 22.617 89.916 23.6198 89.9198 24.6434C89.9198 25.5758 90.1304 26.4329 90.5669 27.2001C90.9878 27.9368 91.5596 28.5535 92.282 29.0646L90.1304 31.9822C89.8597 32.3431 89.8295 32.8244 90.0249 33.2155C90.2355 33.6215 90.6269 33.862 91.0783 33.862H91.6953C91.1185 34.2512 90.6521 34.7094 90.323 35.2495L90.2806 35.3208C89.8896 35.9672 89.6939 36.6442 89.6939 37.3358C89.6939 38.6061 90.2455 39.6589 91.3341 40.451L91.3941 40.4939C92.5079 41.291 94.0725 41.697 96.0434 41.697C97.4126 41.697 98.7217 41.4714 99.9105 41.0352C101.08 40.6118 102.036 39.9893 102.752 39.1823L102.814 39.1107C103.551 38.2682 103.928 37.2456 103.928 36.0727C103.928 34.8395 103.476 33.9671 102.423 33.1252C101.52 32.4184 100.106 32.0426 98.3453 32.0426H92.3271C92.3183 32.0418 92.31 32.0383 92.3032 32.0326L92.297 32.0273L92.2942 32.0211C92.291 32.0115 92.2861 31.9931 92.297 31.9822L93.8618 29.8769C94.2324 30.0496 94.621 30.1806 95.0204 30.2677C95.3813 30.343 95.7876 30.3732 96.239 30.3732C97.5028 30.3732 98.6464 30.1174 99.6395 29.6063C100.633 29.0948 101.43 28.4032 102.002 27.5156C102.573 26.6436 102.859 25.666 102.859 24.6285C102.859 23.5156 102.318 21.4853 100.843 20.4478C100.843 20.4384 100.848 20.435 100.853 20.4335L100.858 20.4325L104.093 20.7934V19.3048H98.9171C98.1048 19.049 97.262 18.8988 96.3896 18.8988V18.8988ZM98.195 28.313C97.6232 28.6135 97.0066 28.779 96.3896 28.779C95.3816 28.779 94.4937 28.4181 93.7414 27.7113C92.9892 27.0044 92.613 25.9669 92.613 24.6434C92.613 23.32 92.9892 22.2821 93.7414 21.5756C94.4937 20.8687 95.3813 20.5078 96.3896 20.5078C96.995 20.5078 97.5731 20.646 98.1234 20.9353L98.195 20.9739C98.7668 21.2747 99.2332 21.7411 99.6093 22.3577C99.9702 22.9743 100.166 23.7412 100.166 24.6434C100.166 25.5609 99.9854 26.3278 99.6093 26.9292C99.2484 27.5458 98.7668 28.0118 98.195 28.3127V28.313ZM94.1176 33.847H98.195C99.3234 33.847 100.046 34.0726 100.527 34.5539C101.009 35.0352 101.249 35.6816 101.249 36.4336C101.249 37.5315 100.813 38.434 99.9403 39.1104C99.0677 39.7874 97.8942 40.133 96.4497 40.133C95.1856 40.133 94.1325 39.8474 93.365 39.3061C92.5978 38.7648 92.2067 37.9372 92.2067 36.8847C92.2067 36.223 92.3872 35.6064 92.7484 35.065C93.1093 34.5237 93.5458 34.1326 94.1173 33.847H94.1176Z" fill="#001E2B"/>
</g>
<defs>
<clipPath id="clip0_312_90">
<rect width="159.29" height="42" fill="white"/>
</clipPath>
</defs>
</svg>
