<svg width="42" height="42" viewBox="0 0 42 42" fill="none" xmlns="http://www.w3.org/2000/svg">
<path d="M19.0129 26.7501C19.1168 28.1198 19.0966 29.4961 18.9525 30.8621C18.9464 31.0541 18.89 31.2412 18.7889 31.4045C18.6878 31.5678 18.5455 31.7017 18.3763 31.7927C17.2856 32.6025 13.6303 32.7967 13.1749 31.0761C13.0069 31.0695 13.1407 30.513 12.9806 30.534C12.6609 30.5077 12.3518 30.4068 12.0782 30.2392C11.8047 30.0716 11.5743 29.8422 11.4056 29.5693C11.4122 27.6872 11.6196 20.8976 8.25561 22.7259C7.52462 23.1333 6.97641 23.8041 6.72261 24.6015C6.49595 25.2972 6.38943 26.0265 6.40761 26.7579C6.38136 27.6951 6.61499 28.7201 6.64911 29.8449C6.66224 30.3476 6.7423 30.4749 6.36824 30.9028C5.7658 31.5919 4.71449 31.0104 4.14618 30.2531C3.90583 29.8717 3.77381 29.432 3.76424 28.9813C3.31224 24.0648 3.75696 19.1071 5.07674 14.3496C5.55843 12.7352 5.72643 12.5016 7.25943 12.1393C9.00374 11.7556 10.7976 11.6493 12.5751 11.8243C13.9545 11.3754 17.2279 8.94469 18.6401 10.8741C20.783 10.3983 22.9994 10.3564 25.1586 10.7509C27.3179 11.1454 29.3764 11.9682 31.2125 13.1709C33.0724 13.3117 34.9388 13.3454 36.8025 13.272C37.065 13.104 37.3721 12.9242 37.6399 12.7693C37.8364 12.6362 38.0571 12.543 38.2895 12.495C38.5914 12.4477 38.9852 12.4346 39.077 12.81C39.157 13.1952 39.1839 13.5896 39.1571 13.9821C39.148 14.2187 39.06 14.4454 38.907 14.6262C38.7541 14.807 38.545 14.9314 38.3132 14.9796C37.7892 14.8936 37.2812 14.729 36.8064 14.4913C35.1002 14.5386 34.0502 14.4441 32.3439 14.4913C32.6182 14.7853 32.6064 14.9796 32.8059 15.3681C33.2963 16.6586 33.4601 18.0504 33.2826 19.4195C33.1051 20.7886 32.5919 22.0926 31.7887 23.2155C31.668 25.1711 31.815 27.1464 31.8294 29.1086C31.836 29.7846 31.8832 30.4277 31.2467 30.8766C30.6852 31.2132 30.0541 31.4166 29.4018 31.4712C28.7495 31.5258 28.0933 31.4301 27.4837 31.1916C27.1515 31.0009 26.8548 30.7539 26.607 30.4618C26.3891 30.4857 26.1694 30.4901 25.9507 30.4749C25.5789 30.371 25.2575 30.1354 25.0464 29.8121C24.9254 29.591 24.8223 29.3606 24.738 29.1231C24.738 28.2043 24.7039 27.8447 24.7039 26.9272C22.8117 27.2659 20.87 27.2114 18.9997 26.7671L19.0129 26.7501Z" fill="#CCCCCC"/>
<path d="M15.8746 32.6012C15.3325 32.6093 14.7928 32.5277 14.2773 32.3597C13.9911 32.2829 13.7268 32.1404 13.5054 31.9435C13.2839 31.7466 13.1114 31.5009 13.0015 31.2257C12.9059 31.1065 12.859 30.9555 12.8703 30.8031V30.744C12.5367 30.694 12.2177 30.5731 11.9347 30.3895C11.6517 30.2059 11.4113 29.9638 11.2297 29.6796L11.1982 29.6284V29.2871C11.21 27.7357 11.2402 23.6132 9.84105 22.7745C9.60556 22.6601 9.34339 22.6119 9.08261 22.635C8.82182 22.6581 8.57223 22.7517 8.36055 22.9057C7.67093 23.29 7.15439 23.9235 6.9168 24.6763C6.70041 25.3493 6.59924 26.0539 6.61755 26.7606C6.6176 27.2875 6.65488 27.8138 6.72911 28.3356C6.78555 28.8159 6.8433 29.3147 6.86036 29.8384C6.86036 29.9158 6.86036 29.9827 6.86955 30.0431C6.89942 30.2246 6.88389 30.4107 6.82435 30.5848C6.7648 30.7588 6.66309 30.9154 6.5283 31.0406C6.42169 31.1665 6.28748 31.2661 6.13609 31.3317C5.98471 31.3973 5.82024 31.427 5.65548 31.4186C5.31914 31.3722 4.9963 31.2556 4.70782 31.0766C4.41933 30.8975 4.17164 30.6599 3.98073 30.3791C3.71155 29.9679 3.56497 29.4885 3.55811 28.9971C3.10029 24.0548 3.54864 19.0704 4.88111 14.2892C5.3733 12.642 5.58986 12.3204 7.21605 11.9359C8.96804 11.5503 10.7695 11.4409 12.5553 11.6117C12.9478 11.4588 13.3313 11.2835 13.7037 11.0867C15.3207 10.2782 17.5231 9.17962 18.7319 10.6483C20.8744 10.186 23.0873 10.153 25.2426 10.5513C27.3979 10.9496 29.4529 11.7713 31.2886 12.9688C33.1057 13.1054 34.9292 13.137 36.7499 13.0633C37.0124 12.9019 37.2907 12.7339 37.5453 12.5869L37.6188 12.5449C37.8156 12.4157 38.0359 12.3265 38.2672 12.2824C38.8499 12.1918 39.1859 12.3519 39.287 12.7562C39.3712 13.1612 39.3998 13.5758 39.3723 13.9886C39.3591 14.2754 39.2494 14.5493 39.0609 14.7659C38.8725 14.9825 38.6163 15.129 38.3341 15.1817H38.3L38.2672 15.1725C38.1539 15.1435 38.0401 15.1164 37.9259 15.0911C37.5164 15.021 37.1199 14.8891 36.7499 14.7C35.9191 14.721 35.234 14.7092 34.5725 14.7C34.0042 14.6908 33.4201 14.6803 32.7429 14.6908C32.7849 14.7735 32.815 14.8536 32.8479 14.9349C32.8905 15.0496 32.9395 15.1618 32.9949 15.2709C33.504 16.5896 33.6793 18.0137 33.505 19.4165C33.3308 20.8193 32.8124 22.1573 31.996 23.3113C31.9225 24.5792 31.9606 25.8799 31.996 27.1386C32.0157 27.783 32.0354 28.4511 32.0394 29.1073V29.2202C32.1026 29.5573 32.0734 29.9053 31.9548 30.2272C31.8363 30.5491 31.6328 30.8329 31.366 31.0485C30.7765 31.4075 30.1116 31.6247 29.4238 31.6833C28.7361 31.7418 28.0441 31.64 27.4023 31.3858C27.1197 31.2459 26.8681 31.0509 26.662 30.8122C26.6161 30.765 26.5702 30.7178 26.5229 30.6731C26.4586 30.6731 26.3917 30.681 26.3326 30.6876C26.1889 30.7102 26.0423 30.7075 25.8995 30.6797C25.4773 30.5629 25.1121 30.2965 24.8718 29.9303C24.7794 29.7812 24.7041 29.6223 24.6474 29.4564C24.6166 29.3732 24.5833 29.2909 24.5476 29.2097L24.5292 29.169V29.1244C24.5292 28.6689 24.5214 28.3447 24.5122 28.0324C24.5056 27.7699 24.499 27.5074 24.4964 27.1674C22.7541 27.4541 20.9737 27.4131 19.2464 27.0467C19.3253 28.3291 19.2968 29.6159 19.1611 30.8936C19.1512 31.1126 19.0858 31.3254 18.971 31.512C18.8562 31.6987 18.6958 31.8531 18.5049 31.9607C17.7053 32.416 16.794 32.6379 15.8746 32.6012V32.6012ZM13.2903 30.8713H13.3375L13.3769 31.0209C13.4563 31.2529 13.5932 31.461 13.7747 31.6258C13.9562 31.7906 14.1766 31.9067 14.4151 31.9633C15.6892 32.3517 17.0643 32.2298 18.2502 31.6234C18.396 31.5491 18.5188 31.4366 18.6055 31.2979C18.6922 31.1591 18.7395 30.9994 18.7424 30.8359C18.8796 29.5384 18.9037 28.2315 18.8146 26.9299L18.703 26.8984L19.1624 25.9875L19.2162 26.5952C21.0149 26.9929 22.8742 27.0322 24.688 26.7107L24.9256 26.6792V26.9181C24.9256 27.3735 24.9335 27.6977 24.9427 28.0101C24.9519 28.3224 24.9584 28.6309 24.9597 29.0692C24.9925 29.1467 25.0214 29.2215 25.0503 29.2937C25.0966 29.4312 25.1578 29.5632 25.2327 29.6874C25.4166 29.969 25.6964 30.1742 26.0202 30.2649C26.1142 30.279 26.2098 30.279 26.3037 30.2649C26.41 30.2523 26.517 30.2466 26.624 30.2479H26.7027L26.7605 30.3017C26.8314 30.3673 26.9022 30.4395 26.9731 30.5117C27.1416 30.7092 27.3466 30.8723 27.5769 30.9921C28.1535 31.217 28.7738 31.3075 29.3906 31.2565C30.0074 31.2056 30.6045 31.0146 31.1364 30.6981C31.6456 30.3384 31.639 29.8449 31.6312 29.2189V29.1047C31.6312 28.4484 31.6075 27.7922 31.5879 27.1464C31.5498 25.851 31.5104 24.5109 31.5879 23.1971V23.1105L31.6535 23.0527C32.4272 21.9646 32.9205 20.7023 33.0897 19.3779C33.2589 18.0534 33.0988 16.7077 32.6234 15.4599C32.5612 15.3376 32.506 15.2118 32.458 15.0832C32.4052 14.9143 32.3156 14.7592 32.1955 14.6291L31.8792 14.2892L32.3425 14.2761C33.2009 14.2524 33.9018 14.2642 34.5817 14.2761C35.2615 14.2879 35.9532 14.2997 36.8011 14.2761H36.8628L36.9153 14.3089C37.2575 14.4943 37.6277 14.6224 38.0112 14.6882C38.1189 14.7131 38.2252 14.7367 38.3289 14.763C38.5015 14.7093 38.6534 14.6038 38.764 14.4608C38.8746 14.3178 38.9385 14.1443 38.947 13.9637C38.9721 13.5914 38.9465 13.2174 38.8709 12.852C38.8525 12.7719 38.8171 12.621 38.3249 12.6984C38.1449 12.7338 37.9737 12.8043 37.8209 12.9058L37.7474 12.9478C37.4849 13.0974 37.1844 13.2799 36.9192 13.4452L36.8707 13.4754H36.8142C34.9422 13.5521 33.0674 13.5184 31.1994 13.3744H31.1442L31.0983 13.3429C29.2852 12.154 27.252 11.3411 25.119 10.9522C22.9861 10.5633 20.7967 10.6063 18.6807 11.0788L18.5495 11.1024L18.472 10.9974C17.4916 9.65869 15.4087 10.6995 13.8875 11.4594C13.4848 11.6749 13.0682 11.8634 12.6406 12.0238L12.5986 12.0369H12.5553C10.7999 11.8638 9.02816 11.9683 7.3053 12.3467C5.83398 12.6932 5.7303 12.8717 5.27486 14.4126C3.95522 19.1441 3.51043 24.0769 3.96236 28.9682C3.96517 29.3789 4.08244 29.7807 4.30098 30.1284C4.45549 30.3588 4.65546 30.5552 4.88861 30.7055C5.12176 30.8558 5.38317 30.9569 5.6568 31.0026C5.75922 31.0085 5.86162 30.9903 5.95576 30.9495C6.0499 30.9087 6.13316 30.8464 6.19886 30.7676C6.29758 30.6833 6.37184 30.574 6.41386 30.4512C6.45588 30.3284 6.46413 30.1965 6.43773 30.0694C6.43773 30.0051 6.42986 29.9381 6.42855 29.8541C6.40847 29.3632 6.36467 28.8735 6.2973 28.3867C6.22053 27.8463 6.18237 27.3011 6.18311 26.7553C6.16391 25.9982 6.27535 25.2434 6.51255 24.5241C6.78545 23.682 7.36688 22.9745 8.14005 22.5435C8.41402 22.351 8.73537 22.2371 9.06939 22.2139C9.40341 22.1908 9.73741 22.2594 10.0353 22.4122C11.6405 23.3743 11.6103 27.5179 11.5972 29.2871V29.5063C11.7474 29.734 11.9464 29.9254 12.1798 30.0666C12.4131 30.2078 12.675 30.2953 12.9464 30.3227C12.9815 30.3188 13.017 30.322 13.0509 30.3321C13.0847 30.3423 13.1161 30.3592 13.1433 30.3817C13.1908 30.435 13.2269 30.4974 13.2495 30.5651C13.272 30.6328 13.2806 30.7044 13.2745 30.7755C13.2864 30.8057 13.2877 30.8437 13.2903 30.8713V30.8713Z" fill="#CCCCCC"/>
<path d="M18.2319 26.2251C18.3358 27.5948 18.3156 28.9711 18.1715 30.3371C18.1654 30.5291 18.109 30.7162 18.0079 30.8795C17.9067 31.0428 17.7645 31.1767 17.5953 31.2677C16.5046 32.0775 12.8493 32.2718 12.3939 30.5511C12.2259 30.5445 12.3597 29.988 12.1996 30.009C11.8799 29.9827 11.5708 29.8818 11.2972 29.7142C11.0237 29.5466 10.7933 29.3172 10.6246 29.0443C10.6312 27.1622 10.8385 20.3726 7.47461 22.2009C6.74362 22.6083 6.1954 23.2791 5.94161 24.0765C5.71495 24.7722 5.60842 25.5015 5.62661 26.2329C5.60036 27.1701 5.83398 28.1951 5.86811 29.3199C5.88123 29.8226 5.9613 29.9499 5.58723 30.3778C4.9848 31.0669 3.93348 30.4854 3.36517 29.7281C3.12483 29.3467 2.9928 28.9071 2.98323 28.4563C2.53124 23.5398 2.97596 18.5821 4.29573 13.8246C4.77742 12.2102 4.94542 11.9766 6.47842 11.6143C8.22273 11.2306 10.0166 11.1243 11.794 11.2993C13.1735 10.8504 16.4469 8.41969 17.8591 10.3491C20.0019 9.8733 22.2184 9.83143 24.3776 10.2259C26.5369 10.6204 28.5953 11.4432 30.4315 12.6459C32.2914 12.7867 34.1578 12.8204 36.0215 12.747C36.284 12.579 36.5911 12.3992 36.8589 12.2443C37.0554 12.1112 37.2761 12.018 37.5085 11.97C37.8104 11.9228 38.2042 11.9096 38.296 12.285C38.376 12.6702 38.4029 13.0646 38.3761 13.4571C38.367 13.6937 38.2789 13.9204 38.126 14.1012C37.9731 14.282 37.764 14.4064 37.5322 14.4546C37.0082 14.3686 36.5002 14.204 36.0254 13.9663C34.3192 14.0136 33.2692 13.9191 31.5629 13.9663C31.8372 14.2603 31.8254 14.4546 32.0249 14.8431C32.5153 16.1336 32.679 17.5254 32.5016 18.8945C32.3241 20.2636 31.8109 21.5676 31.0077 22.6905C30.887 24.6461 31.034 26.6214 31.0484 28.5836C31.055 29.2596 31.1022 29.9027 30.4657 30.3516C29.9042 30.6882 29.2731 30.8916 28.6208 30.9462C27.9685 31.0008 27.3123 30.9051 26.7027 30.6666C26.3705 30.4759 26.0738 30.2289 25.826 29.9368C25.6081 29.9607 25.3884 29.9651 25.1697 29.9499C24.7979 29.846 24.4765 29.6104 24.2654 29.2871C24.1444 29.066 24.0413 28.8356 23.957 28.5981C23.957 27.6793 23.9229 27.3197 23.9229 26.4022C22.0306 26.7409 20.089 26.6864 18.2187 26.2421L18.2319 26.2251Z" fill="#373435"/>
<path d="M15.0937 32.0762C14.5516 32.0843 14.0119 32.0027 13.4964 31.8347C13.2102 31.7579 12.9459 31.6153 12.7245 31.4185C12.503 31.2216 12.3305 30.9759 12.2206 30.7007C12.125 30.5815 12.0781 30.4305 12.0894 30.2781V30.219C11.7558 30.169 11.4367 30.0481 11.1538 29.8645C10.8708 29.6809 10.6304 29.4388 10.4488 29.1546L10.4173 29.1034V28.7621C10.4291 27.2107 10.4593 23.0882 9.06013 22.2495C8.82465 22.1351 8.56248 22.0869 8.30169 22.11C8.04091 22.1331 7.79132 22.2267 7.57963 22.3807C6.89001 22.765 6.37348 23.3985 6.13588 24.1513C5.9195 24.8243 5.81832 25.5289 5.83663 26.2356C5.83667 26.7625 5.87395 27.2888 5.94819 27.8106C6.00463 28.2922 6.06238 28.7897 6.07944 29.3147C6.07944 29.3921 6.07944 29.4591 6.08863 29.5194C6.11851 29.701 6.10298 29.887 6.04343 30.0611C5.98389 30.2351 5.88218 30.3918 5.74738 30.5169C5.64084 30.6429 5.50664 30.7426 5.35524 30.8081C5.20384 30.8737 5.03934 30.9034 4.87457 30.8949C4.53823 30.8485 4.21538 30.7319 3.9269 30.5529C3.63842 30.3738 3.39072 30.1362 3.19982 29.8554C2.9307 29.4442 2.78413 28.9648 2.77719 28.4734C2.31922 23.5307 2.76757 18.5459 4.10019 13.7642C4.59238 12.117 4.80894 11.7954 6.43513 11.4109C8.18711 11.0253 9.98861 10.9159 11.7744 11.0867C12.1669 10.9338 12.5504 10.7585 12.9228 10.5617C14.5398 9.75319 16.7422 8.65331 17.951 10.1233C20.0936 9.66124 22.3065 9.62852 24.4618 10.027C26.6171 10.4256 28.672 11.2474 30.5077 12.4451C32.3226 12.5824 34.1438 12.6149 35.9624 12.5422C36.2184 12.3834 36.5045 12.2115 36.7578 12.0658L36.8313 12.0238C37.0281 11.8946 37.2484 11.8054 37.4797 11.7613C38.0624 11.6707 38.3984 11.8309 38.4995 12.2351C38.5837 12.6402 38.6124 13.0548 38.5848 13.4676C38.5716 13.7544 38.4619 14.0283 38.2734 14.2449C38.085 14.4614 37.8289 14.6079 37.5466 14.6606H37.5125L37.4797 14.6514C37.3664 14.6225 37.2526 14.5954 37.1384 14.5701C36.7319 14.4982 36.3386 14.3655 35.9716 14.1763C35.1408 14.1973 34.4557 14.1855 33.7942 14.1763C33.2259 14.1671 32.6418 14.1566 31.9646 14.1671C32.0066 14.2498 32.0368 14.3299 32.0696 14.4112C32.1122 14.5259 32.1613 14.6381 32.2166 14.7472C32.7256 16.066 32.9008 17.4901 32.7266 18.8928C32.5523 20.2956 32.034 21.6335 31.2178 22.7876C31.1443 24.0555 31.1823 25.3562 31.2178 26.6136C31.2361 27.2593 31.2558 27.9261 31.2611 28.5823V28.6952C31.3244 29.0322 31.2954 29.3801 31.1771 29.702C31.0588 30.0239 30.8556 30.3077 30.5891 30.5235C29.9995 30.8825 29.3346 31.0997 28.6469 31.1583C27.9591 31.2168 27.2671 31.115 26.6253 30.8608C26.3428 30.7209 26.0911 30.5259 25.8851 30.2872C25.8391 30.24 25.7932 30.1927 25.7459 30.1481C25.6816 30.1481 25.6147 30.156 25.5556 30.1626C25.4119 30.1852 25.2653 30.1826 25.1225 30.1547C24.7003 30.0379 24.3351 29.7715 24.0948 29.4052C24.0024 29.2563 23.9271 29.0973 23.8704 28.9314C23.8396 28.8482 23.8063 28.7659 23.7706 28.6847L23.7523 28.644V28.5994C23.7523 28.1439 23.7444 27.8197 23.7352 27.5074C23.7286 27.2449 23.7208 26.9824 23.7194 26.6424C21.9772 26.929 20.1967 26.8881 18.4694 26.5217C18.545 27.8031 18.5134 29.0886 18.3749 30.3647C18.3651 30.5836 18.2997 30.7964 18.1849 30.9831C18.07 31.1698 17.9096 31.3242 17.7187 31.4317C16.921 31.8875 16.0117 32.1107 15.0937 32.0762V32.0762ZM12.5094 30.3463H12.5566L12.596 30.4959C12.6754 30.7279 12.8122 30.936 12.9938 31.1008C13.1753 31.2656 13.3956 31.3817 13.6342 31.4383C14.9083 31.8269 16.2835 31.705 17.4693 31.0984C17.6151 31.0241 17.7379 30.9116 17.8246 30.7729C17.9113 30.6341 17.9586 30.4744 17.9615 30.3109C18.0986 29.0134 18.1228 27.7065 18.0337 26.4049L17.9221 26.3734L18.3749 25.4691L18.4288 26.0767C20.2274 26.4744 22.0868 26.5137 23.9006 26.1922L24.1381 26.1607V26.3996C24.1381 26.8551 24.146 27.1792 24.1552 27.4916C24.1644 27.804 24.1709 28.1124 24.1723 28.5508C24.2051 28.6282 24.2339 28.7031 24.2628 28.7766C24.3091 28.9141 24.3703 29.0461 24.4453 29.1703C24.6291 29.4519 24.9089 29.6571 25.2328 29.7478C25.3267 29.762 25.4223 29.762 25.5163 29.7478C25.6225 29.7352 25.7295 29.7295 25.8365 29.7307H25.9153L25.973 29.7846C26.0439 29.8502 26.1148 29.9158 26.1856 29.9946C26.3541 30.192 26.5591 30.3551 26.7894 30.4749C27.366 30.6999 27.9863 30.7903 28.6031 30.7394C29.2199 30.6884 29.817 30.4974 30.3489 30.1809C30.8581 29.8213 30.8516 29.3278 30.8437 28.7017V28.5876C30.8437 27.9313 30.8201 27.2751 30.8004 26.628C30.7623 25.3326 30.7229 23.9938 30.8004 22.68V22.5934L30.866 22.5356C31.6396 21.4474 32.1329 20.1851 32.3021 18.8607C32.4713 17.5363 32.3112 16.1906 31.8359 14.9428C31.7737 14.8205 31.7185 14.6947 31.6706 14.5661C31.6178 14.3972 31.5281 14.2421 31.4081 14.112L31.0918 13.7721L31.5551 13.7589C32.4134 13.7353 33.1143 13.7471 33.7942 13.7589C34.4741 13.7707 35.1658 13.7826 36.0136 13.7589H36.0753L36.1278 13.7917C36.47 13.9772 36.8402 14.1053 37.2238 14.1711C37.3314 14.196 37.4377 14.2196 37.5414 14.2459C37.714 14.1922 37.8659 14.0867 37.9765 13.9437C38.0871 13.8007 38.151 13.6271 38.1596 13.4466C38.1846 13.0743 38.159 12.7003 38.0834 12.3349C38.0651 12.2548 38.0296 12.1052 37.5374 12.1813C37.3575 12.2167 37.1862 12.2871 37.0334 12.3887L36.9586 12.4307C36.6961 12.5816 36.3929 12.7641 36.1304 12.9281L36.0937 12.9544H36.0373C34.1653 13.031 32.2904 12.9972 30.4224 12.8533H30.3673L30.3187 12.8192C28.5056 11.6303 26.4724 10.8174 24.3394 10.4285C22.2064 10.0396 20.0171 10.0826 17.9011 10.5551L17.7699 10.5787L17.6924 10.4737C16.712 9.135 14.6291 10.1758 13.1079 10.9357C12.7052 11.1512 12.2886 11.3397 11.861 11.5001L11.819 11.5132H11.7757C10.0203 11.34 8.24854 11.4445 6.52569 11.823C5.05438 12.1695 4.95069 12.348 4.49526 13.8889C3.17562 18.6204 2.73083 23.5532 3.18276 28.4445C3.18557 28.8552 3.30284 29.257 3.52138 29.6047C3.67589 29.8351 3.87586 30.0315 4.10901 30.1818C4.34215 30.3322 4.60357 30.4332 4.87719 30.4789C4.97971 30.4856 5.08234 30.4677 5.1766 30.4269C5.27086 30.386 5.35404 30.3233 5.41926 30.2439C5.51798 30.1596 5.59224 30.0503 5.63426 29.9275C5.67628 29.8047 5.68453 29.6728 5.65813 29.5457C5.65813 29.4814 5.65026 29.4144 5.64894 29.3304C5.62887 28.8395 5.58507 28.3498 5.51769 27.8631C5.44088 27.3227 5.40272 26.7775 5.40351 26.2316C5.38431 25.4745 5.49575 24.7197 5.73294 24.0004C6.00584 23.1583 6.58728 22.4508 7.36044 22.0198C7.63441 21.8273 7.95577 21.7134 8.28979 21.6902C8.62381 21.6671 8.95781 21.7357 9.25569 21.8886C10.8609 22.8506 10.8307 26.9942 10.8176 28.7634V28.9826C10.9697 29.211 11.171 29.4023 11.4068 29.5427C11.6425 29.6831 11.9067 29.7688 12.1799 29.7938C12.215 29.7898 12.2506 29.7931 12.2844 29.8032C12.3182 29.8134 12.3497 29.8302 12.3768 29.8528C12.4243 29.9061 12.4604 29.9685 12.483 30.0362C12.5056 30.1039 12.5141 30.1755 12.5081 30.2466C12.5058 30.2798 12.5063 30.3132 12.5094 30.3463V30.3463Z" fill="#373435"/>
<path d="M24.3756 26.1791C24.7968 26.1385 25.2128 26.0554 25.6173 25.9311C25.8204 27.1223 25.8808 28.3336 25.7971 29.5391C25.4906 29.5584 25.1853 29.486 24.9202 29.331C24.6551 29.176 24.4422 28.9455 24.3087 28.6689C24.2409 27.839 24.2634 27.0042 24.3756 26.1791V26.1791Z" fill="#6978AB"/>
<path d="M25.7538 29.7491C25.4161 29.7606 25.0823 29.6739 24.793 29.4993C24.5036 29.3248 24.2711 29.0701 24.1237 28.7661L24.104 28.7293V28.6873C24.0354 27.8421 24.0583 26.9919 24.1723 26.1516L24.1933 25.9888L24.356 25.9704C24.7632 25.9308 25.1655 25.8508 25.5569 25.7316L25.7722 25.662L25.8247 25.8825C26.0221 26.9573 26.0869 28.0522 26.0176 29.1428L26.0071 29.7452H25.805L25.7538 29.7491ZM24.5148 28.6072C24.6174 28.8094 24.7705 28.9815 24.9594 29.1069C25.1482 29.2322 25.3663 29.3065 25.5924 29.3226V29.1336C25.6488 28.1525 25.6049 27.1683 25.4611 26.1962C25.1666 26.2736 24.8671 26.3307 24.5647 26.3668C24.4731 27.1118 24.4559 27.8641 24.5135 28.6125L24.5148 28.6072Z" fill="#373435"/>
<path d="M5.31818 29.7714C5.02287 27.8368 4.7223 24.423 6.10568 22.7955C6.21515 22.648 6.3335 22.5073 6.46005 22.3742C8.64274 20.3188 10.5446 22.0867 11.0604 24.3626C11.1697 25.8015 11.1921 27.2457 11.1273 28.6873C11.2562 28.9381 11.4552 29.146 11.7001 29.2858C11.945 29.4256 12.2252 29.4913 12.5067 29.4748C12.7076 29.8896 12.6537 30.198 12.8821 30.4723C13.3156 30.9589 13.8841 31.3053 14.5152 31.4676C15.1464 31.6298 15.8115 31.6004 16.4259 31.3832C16.8369 31.2089 17.2371 31.0099 17.6242 30.7873C17.9375 29.0268 17.8929 27.2211 17.4929 25.4783C17.4929 25.2368 17.4129 25.0766 17.4129 24.8351C17.563 24.8567 17.7043 24.9193 17.8211 25.0162C17.5586 25.9796 21.1758 26.6424 25.3955 25.4783C25.4427 25.3103 25.3614 25.1029 25.4624 25.0425C25.5277 25.0016 25.6012 24.9756 25.6776 24.9663C25.754 24.957 25.8316 24.9647 25.9047 24.9887C25.9244 25.2971 25.931 25.5977 25.952 25.9074C26.2792 25.9383 26.6084 25.9427 26.9364 25.9206C26.7211 26.1142 26.4381 26.2151 26.1489 26.2014C26.2224 26.2014 26.1082 26.3419 26.1751 26.355C26.3694 26.4022 26.7382 26.3287 26.8917 26.3957C26.6043 26.5637 26.2827 26.4692 26.0885 26.6582C26.1357 27.6819 26.162 28.7805 26.2027 29.8082C26.8356 30.2886 27.6168 30.5323 28.4106 30.4968C29.2045 30.4613 29.9608 30.1489 30.5484 29.6139C30.6738 27.5576 30.6299 25.4944 30.4171 23.4452C30.2636 23.4255 30.1087 23.3979 29.9551 23.3782C32.3531 20.1521 32.8151 16.8512 30.8056 13.8718C30.7859 13.7406 30.698 13.6093 30.6744 13.4781C32.4226 13.4111 34.2181 13.5922 35.9716 13.5253C36.445 13.7045 36.9334 13.8412 37.4311 13.9335C37.9469 13.7524 38.0401 12.3204 37.5322 12.4806C37.0242 12.6407 36.7447 12.9622 36.2 13.1631C34.1906 13.1631 31.9606 13.083 29.9525 13.083C28.3131 11.7786 26.3715 10.9084 24.3069 10.5526C22.2423 10.1968 20.1214 10.3669 18.14 11.0473C18.7503 12.3614 19.0946 13.7832 19.1532 15.2309C19.2117 16.6787 18.9834 18.1237 18.4812 19.4827C18.3671 19.8581 16.6332 20.9554 18.0521 19.7571C19.4853 18.5391 18.5876 10.0774 16.8262 10.0629C14.7535 10.0844 12.7638 10.8803 11.2481 12.2942C10.9737 12.0002 10.9934 12.1196 11.1168 11.7049C9.61772 11.5758 8.10762 11.709 6.6543 12.0986C6.27764 12.1106 5.91335 12.2359 5.60898 12.4581C5.3046 12.6803 5.07427 12.9891 4.94805 13.3442C3.62352 18.0777 3.09133 22.9978 3.37305 27.9051C3.44202 28.4935 3.5977 29.0685 3.83505 29.6113C4.62255 30.4749 5.0478 30.2269 5.30899 29.7714H5.31818Z" fill="url(#paint0_linear_312_48)"/>
<path d="M8.46034 13.6789C8.01875 13.4988 7.53924 13.4316 7.06516 13.4833C7.02167 13.4786 6.97788 13.4891 6.94126 13.513C6.90464 13.5369 6.87745 13.5728 6.86434 13.6146C6.84671 13.6448 6.83531 13.6783 6.8308 13.713C6.82629 13.7477 6.82877 13.7829 6.83809 13.8167C6.87878 13.9309 6.88534 13.9243 6.98509 13.9479C7.1172 13.9676 7.25209 13.9559 7.37884 13.9138C7.52868 13.8349 7.694 13.7897 7.86316 13.7816C8.03233 13.7734 8.20122 13.8024 8.35797 13.8666C8.50497 13.86 8.51941 13.7996 8.47216 13.6841L8.46034 13.6789Z" fill="#373435"/>
<path d="M7.09542 14.1632C7.04338 14.1634 6.99147 14.1581 6.94054 14.1474H6.92348C6.854 14.1404 6.78869 14.111 6.73734 14.0636C6.68599 14.0163 6.65137 13.9536 6.63867 13.8849C6.62019 13.8232 6.61426 13.7585 6.62125 13.6944C6.62824 13.6304 6.648 13.5684 6.67936 13.5122C6.7098 13.4396 6.76169 13.3781 6.82808 13.3359C6.89447 13.2937 6.97218 13.2728 7.05079 13.2759C7.54077 13.2241 8.03601 13.2912 8.49454 13.4715H8.60217L8.65598 13.6027C8.68613 13.6523 8.70185 13.7092 8.70136 13.7672C8.70088 13.8251 8.6842 13.8818 8.65322 13.9308C8.62225 13.9798 8.57819 14.0192 8.52604 14.0444C8.47388 14.0697 8.4157 14.0799 8.35804 14.0739H8.32654L8.29111 14.0634C8.16185 14.0075 8.02174 13.981 7.88097 13.986C7.7402 13.991 7.60232 14.0273 7.47736 14.0923L7.45373 14.1067L7.42748 14.1133C7.31942 14.1442 7.2078 14.161 7.09542 14.1632V14.1632ZM7.03767 13.7392C7.12604 13.7484 7.21535 13.7394 7.30017 13.713L7.37104 13.6776C7.27917 13.6776 7.18598 13.6776 7.09148 13.692H7.05736L7.04948 13.7077C7.04376 13.7175 7.03977 13.7281 7.03767 13.7392V13.7392ZM7.37892 15.3392C7.4389 15.2144 7.53356 15.1096 7.65157 15.0372C7.76958 14.9648 7.90595 14.9279 8.04436 14.931C8.07061 14.763 8.04436 14.6685 7.82911 14.6685C7.52341 14.8235 7.2623 15.0539 7.07048 15.3379C6.96035 15.5848 6.9252 15.8586 6.96942 16.1254C6.99343 16.3077 7.0876 16.4734 7.23192 16.5874C7.38135 16.6809 7.55557 16.7271 7.73172 16.7198C7.90786 16.7126 8.07769 16.6522 8.21892 16.5467C8.68879 16.2724 9.15867 15.4888 8.33311 15.1935C8.16766 15.1612 7.99744 15.1624 7.83244 15.1968C7.66745 15.2313 7.51102 15.2985 7.37236 15.3943C7.35923 15.4009 7.35267 15.3746 7.37236 15.3405L7.37892 15.3392Z" fill="#373435"/>
<path d="M7.63344 16.9391C7.4384 16.943 7.24844 16.8769 7.09794 16.7528C6.91224 16.6035 6.79176 16.388 6.76194 16.1516C6.70847 15.8392 6.75438 15.5178 6.89319 15.2329C7.10322 14.9177 7.39004 14.6611 7.72662 14.4874L7.77256 14.4598H7.82244C7.88682 14.4536 7.95178 14.4615 8.01277 14.4831C8.07376 14.5046 8.1293 14.5392 8.1755 14.5845C8.21517 14.6383 8.24255 14.7002 8.25571 14.7657C8.26886 14.8312 8.26747 14.8989 8.25162 14.9638C8.42985 14.9907 8.59583 15.0708 8.72788 15.1935C8.85993 15.3161 8.95193 15.4758 8.99187 15.6516C8.9843 15.8741 8.91881 16.0907 8.80188 16.2802C8.68494 16.4696 8.52062 16.6253 8.32512 16.7318C8.11665 16.8602 7.87816 16.9317 7.63344 16.9391V16.9391ZM7.2095 15.54C7.16093 15.725 7.15022 15.9178 7.178 16.107C7.1964 16.2362 7.26473 16.3531 7.36831 16.4325C7.62162 16.6438 8.03244 16.4181 8.1125 16.3708C8.23878 16.3033 8.34679 16.2062 8.42726 16.0878C8.50773 15.9694 8.55826 15.8332 8.5745 15.6909C8.56269 15.5597 8.45769 15.4652 8.26344 15.3956C7.99039 15.3544 7.71193 15.4192 7.48512 15.5768L7.46806 15.5859L7.32762 15.6568L7.21212 15.54H7.2095Z" fill="#373435"/>
<path d="M7.74363 16.2501C7.74636 16.2979 7.75564 16.3452 7.77119 16.3905C7.77793 16.4117 7.78718 16.4319 7.79875 16.4509C7.76045 16.4763 7.71651 16.492 7.67076 16.4966C7.62501 16.5011 7.57884 16.4945 7.53625 16.4771C7.24619 16.3459 7.26719 15.939 7.4155 15.7185C7.49321 15.6048 7.5965 15.5109 7.71708 15.4443C7.83766 15.3777 7.97218 15.3404 8.10982 15.3352C8.26469 15.4153 8.31194 15.4901 8.23057 15.5098C8.18459 15.5185 8.14029 15.5345 8.09932 15.5571C8.06815 15.571 8.04033 15.5915 8.01769 15.6171C7.99506 15.6426 7.97814 15.6727 7.96807 15.7054C8.035 15.7251 8.06913 15.7054 8.1295 15.7316V15.9403C8.065 15.9079 7.99133 15.8986 7.92082 15.9141C7.78957 15.9547 7.73838 16.1424 7.73838 16.2566L7.74363 16.2501Z" fill="#FEFEFE"/>
<path d="M8.29883 21.6024C8.67065 21.5228 9.02296 21.3701 9.33535 21.1533C9.64775 20.9365 9.91402 20.6598 10.1187 20.3394C10.3235 20.0189 10.4626 19.661 10.528 19.2864C10.5934 18.9118 10.5839 18.528 10.4999 18.1571C10.2649 18.1522 10.0347 18.0901 9.8292 17.976C9.81608 17.8894 9.80952 17.8014 9.79508 17.7135C10.3385 17.976 11.1076 18.0548 11.0078 17.2239C11.0813 17.2043 11.1955 17.1977 11.2703 17.1767C11.2441 17.7594 11.1391 17.8132 10.7808 18.0613C10.8838 18.6967 10.8301 19.3476 10.6242 19.9574C10.4183 20.5672 10.0666 21.1175 9.59952 21.5604C9.57171 21.7427 9.58791 21.929 9.64677 22.1038C9.47495 21.9243 9.26411 21.7868 9.03059 21.7019C8.79706 21.617 8.54712 21.587 8.30014 21.6143L8.29883 21.6024Z" fill="#373435"/>
<path d="M10.0171 22.8257L9.49208 22.2456C9.33967 22.0886 9.15303 21.969 8.94675 21.8962C8.74047 21.8233 8.52013 21.7992 8.30296 21.8256H8.09033V21.4581L8.23864 21.399C8.91442 21.2604 9.50957 20.8639 9.89775 20.2937C10.2859 19.7234 10.4365 19.0243 10.3176 18.3448C10.1048 18.3289 9.89882 18.2628 9.71652 18.1519L9.63514 18.1007L9.62071 18.0075L9.60233 17.8697L9.58658 17.7463L9.52621 17.3526L9.88452 17.5258C10.0049 17.6031 10.1409 17.6527 10.2828 17.6708C10.4247 17.689 10.5689 17.6753 10.7048 17.6308C10.7888 17.5717 10.8203 17.4431 10.798 17.2489L10.7783 17.0704L10.9516 17.0231C11.003 17.0103 11.0552 17.0007 11.1078 16.9942C11.1431 16.9901 11.1781 16.984 11.2128 16.9759L11.491 16.8997L11.4779 17.1872C11.4503 17.7857 11.3191 17.9366 11.0041 18.1611C11.0861 18.7991 11.0192 19.4474 10.8085 20.0552C10.5979 20.663 10.2493 21.2137 9.79002 21.6641C9.79029 21.7759 9.80574 21.8872 9.83596 21.9949L10.0171 22.8257ZM9.09833 21.5027C9.19376 21.5332 9.28605 21.5728 9.37396 21.6208C9.37791 21.5761 9.38716 21.5321 9.40152 21.4896L9.41596 21.4476L9.44614 21.4147C9.55814 21.2949 9.66183 21.1746 9.75721 21.0538C9.55556 21.2283 9.33448 21.3789 9.09833 21.5027Z" fill="#373435"/>
<path d="M29.081 30.4671C29.0482 29.9722 28.9879 29.5378 28.9734 29.0417C28.9406 27.9051 28.077 27.657 28.0297 28.7936C28.0035 29.3895 28.0297 29.9512 28.0297 30.513C28.3801 30.5609 28.7362 30.5454 29.081 30.4671V30.4671Z" fill="#8093D0"/>
<path d="M28.5324 30.6075C28.4011 30.6075 28.2777 30.5996 28.1531 30.5918L27.9562 30.5812V29.9578C27.9562 29.5824 27.9444 29.1939 27.9562 28.7936C27.9811 28.1991 28.2187 27.9877 28.43 27.9877C28.7096 27.9877 29.0167 28.3592 29.0377 29.0378C29.0456 29.3409 29.0718 29.6179 29.0981 29.9106C29.1151 30.0891 29.1309 30.2702 29.144 30.4592V30.5156L29.0902 30.5314C28.9088 30.5829 28.721 30.6086 28.5324 30.6075V30.6075ZM28.1006 30.45H28.1636C28.4451 30.4831 28.7301 30.4703 29.0075 30.4119C28.9957 30.2439 28.9799 30.0825 28.9655 29.9237C28.9379 29.6284 28.913 29.3501 28.9038 29.0417C28.8867 28.476 28.6413 28.1229 28.4352 28.1229C28.2935 28.1229 28.1216 28.2988 28.1006 28.7949C28.0822 29.1887 28.0887 29.5824 28.1006 29.9512C28.0979 30.1192 28.1006 30.2833 28.1006 30.45Z" fill="#373435"/>
<path d="M28.0456 30.5248C27.9503 29.9539 27.9147 29.3746 27.9393 28.7963C28.0128 27.7463 27.0205 26.6398 26.9536 28.5889C26.9293 29.1585 26.9517 29.7292 27.0205 30.2951C27.3557 30.3981 27.6985 30.4749 28.0456 30.5248V30.5248Z" fill="#8093D0"/>
<path d="M28.1256 30.6088L28.0351 30.5944C27.6839 30.5452 27.3372 30.4684 26.9982 30.3647L26.9562 30.3503V30.3069C26.8867 29.7366 26.8643 29.1616 26.8892 28.5876C26.9102 27.9589 27.0205 27.5861 27.2344 27.4785C27.2833 27.4541 27.338 27.444 27.3923 27.4494C27.4467 27.4547 27.4984 27.4753 27.5416 27.5087C27.7133 27.6742 27.8451 27.8766 27.9272 28.1006C28.0093 28.3245 28.0394 28.5642 28.0154 28.8015C27.9858 29.3084 28.01 29.817 28.0876 30.3187L28.1256 30.6088ZM27.0835 30.2453C27.3722 30.331 27.6664 30.3968 27.9642 30.4421L27.9511 30.3332C27.8699 29.8238 27.8422 29.3074 27.8684 28.7923C27.8906 28.5795 27.8653 28.3645 27.7943 28.1627C27.7232 27.9609 27.6082 27.7774 27.4576 27.6255C27.4351 27.6063 27.4076 27.5939 27.3783 27.5897C27.349 27.5855 27.3192 27.5898 27.2922 27.6019C27.22 27.6386 27.0494 27.8106 27.0218 28.5915C26.9983 29.1435 27.0189 29.6965 27.0835 30.2453V30.2453Z" fill="#373435"/>
<path d="M27.0218 30.3844L26.8813 28.1531C26.7803 26.4876 26.1109 26.6818 26.0571 28.0534C26.0308 28.7018 26.0833 29.0561 26.0229 29.7058C26.3379 29.9197 26.6661 30.3411 27.0218 30.3752V30.3844Z" fill="#8093D0"/>
<path d="M27.0151 30.45C26.7343 30.3814 26.4805 30.23 26.2867 30.0156C26.191 29.9274 26.0902 29.845 25.9848 29.7688L25.9507 29.7452V29.7045C25.9781 29.3903 25.9873 29.0748 25.9782 28.7595V28.056C26.0058 27.3564 26.1909 26.9023 26.4494 26.8997C26.7119 26.8997 26.8931 27.3683 26.9403 28.1544L27.0807 30.3857H27.0099L27.0151 30.45ZM26.0964 29.6769C26.1909 29.7452 26.2854 29.8292 26.3786 29.9106C26.5391 30.0763 26.7322 30.2072 26.9456 30.2951L26.8143 28.1636C26.7644 27.3381 26.5767 27.0401 26.4626 27.0401C26.3444 27.0401 26.1567 27.3669 26.1305 28.0626C26.1187 28.3251 26.1226 28.5495 26.1305 28.7595C26.1356 29.0648 26.1243 29.3702 26.0964 29.6743V29.6769Z" fill="#373435"/>
<path d="M15.5729 31.5367C15.5907 31.0144 15.5639 30.4914 15.4929 29.9736C15.212 28.7661 14.8576 28.6177 14.4429 29.5102V31.5157C14.818 31.5671 15.198 31.5715 15.5742 31.5289L15.5729 31.5367Z" fill="#8093D0"/>
<path d="M15.1489 31.6313C14.931 31.6313 14.7131 31.6116 14.4992 31.5919L14.3679 31.5801V29.4801C14.5687 29.0483 14.7617 28.8474 14.9559 28.8684C15.1948 28.8934 15.3838 29.2386 15.5505 29.9565L15.5636 30.0707C15.6283 30.557 15.6515 31.0479 15.6332 31.5381H15.5649L15.5741 31.5984C15.4334 31.6205 15.2912 31.6315 15.1489 31.6313V31.6313ZM14.511 31.4528C14.8405 31.495 15.1737 31.5007 15.5045 31.4698C15.5176 31.008 15.4939 30.5458 15.4337 30.0878L15.4219 29.9814C15.2302 29.1585 15.0439 29.0181 14.9507 29.0089C14.8785 29.0089 14.7302 29.0601 14.511 29.5273V31.4528Z" fill="#373435"/>
<path d="M13.5189 31.206C13.5254 30.4369 13.532 29.9276 13.532 29.1585C13.8129 28.0271 14.1003 28.1413 14.3812 29.4997C14.3877 30.2295 14.3943 30.7046 14.3943 31.4331C14.0871 31.4211 13.7859 31.3436 13.511 31.206H13.5189Z" fill="#8093D0"/>
<path d="M14.4597 31.5118L14.3416 31.4987C14.0383 31.484 13.7416 31.4048 13.4714 31.2664L13.2417 31.1351H13.4438V30.7414C13.4438 30.2033 13.453 29.7583 13.453 29.1519V29.1349C13.5948 28.5653 13.7339 28.3106 13.9058 28.3106C14.0371 28.3106 14.2221 28.4484 14.4308 29.4787V29.9329C14.4308 30.4382 14.44 30.8516 14.44 31.4278L14.4597 31.5118ZM13.5843 31.1679C13.8155 31.2767 14.0655 31.34 14.3206 31.3543C14.3206 30.8214 14.3206 30.4211 14.3114 29.9394V29.4998C14.1053 28.5114 13.9478 28.4576 13.9176 28.4576C13.8874 28.4576 13.7746 28.4734 13.6013 29.1664C13.6013 29.7688 13.6013 30.2164 13.5921 30.7492L13.5843 31.1679Z" fill="#373435"/>
<path d="M12.4688 29.6927C12.5095 29.0496 12.6434 28.3999 12.6828 27.7568C12.4203 26.4836 12.1342 26.2566 11.8336 27.0874C11.8205 27.9116 11.8139 28.7424 11.8008 29.5667C11.9993 29.6933 12.2385 29.7402 12.4702 29.6979L12.4688 29.6927Z" fill="#8093D0"/>
<path d="M12.3021 29.7938C12.1418 29.7855 11.9856 29.7406 11.8454 29.6625L11.7351 29.6126V29.5667C11.7421 29.1546 11.7478 28.7416 11.7522 28.3277C11.7565 27.9138 11.7622 27.5004 11.7692 27.0874V27.0651C11.9005 26.6884 12.0396 26.5191 12.1971 26.5296C12.3546 26.5401 12.537 26.6884 12.7536 27.7449V27.7633C12.7339 28.0875 12.6893 28.4196 12.646 28.7359C12.6027 29.0522 12.5594 29.379 12.5397 29.6966V29.757L12.4845 29.7688C12.4248 29.7834 12.3636 29.7918 12.3021 29.7938V29.7938ZM11.8769 29.5313L11.9031 29.5431C12.055 29.6338 12.2327 29.6716 12.4084 29.6507C12.4294 29.3423 12.4714 29.0286 12.5134 28.7254C12.5554 28.4222 12.5987 28.0875 12.6197 27.7712C12.4137 26.7698 12.2404 26.6805 12.1919 26.6766C12.1656 26.6766 12.0606 26.6989 11.9097 27.1097C11.9027 27.5174 11.897 27.9265 11.8926 28.3369C11.8882 28.7473 11.883 29.1419 11.8769 29.5208V29.5313Z" fill="#373435"/>
<path d="M24.9651 29.4893C25.0189 28.8054 24.9454 28.2358 24.9651 27.5664C24.9848 26.7553 25.7867 26.9903 25.8209 27.7344C25.855 28.4786 25.8944 28.8606 25.9351 29.6034C25.6101 29.6585 25.2761 29.6188 24.973 29.4893H24.9651Z" fill="#8093D0"/>
<path d="M25.5451 29.6861C25.3399 29.6933 25.1362 29.6481 24.9532 29.5549H24.8954V29.4801C24.9189 29.1148 24.9215 28.7484 24.9033 28.3828C24.8954 28.1203 24.8863 27.8486 24.8954 27.5612C24.9059 27.1386 25.1146 26.9863 25.3063 26.985C25.5688 26.985 25.8667 27.2672 25.8864 27.7279C25.9061 28.1072 25.9258 28.3841 25.9441 28.6742C25.9625 28.9642 25.9809 29.2294 26.0006 29.5929V29.6638L25.7971 29.6717C25.7135 29.6818 25.6293 29.6866 25.5451 29.6861ZM25.0372 29.4446C25.2774 29.544 25.5399 29.5766 25.7971 29.5391H25.8601C25.8442 29.2555 25.8267 28.972 25.8076 28.6886C25.7893 28.4038 25.7709 28.1203 25.7499 27.7397C25.7289 27.3591 25.5097 27.1294 25.3089 27.1294C25.1448 27.1294 25.0464 27.2961 25.0359 27.5704C25.0254 27.8447 25.0359 28.1229 25.0438 28.3841C25.0599 28.7375 25.0578 29.0915 25.0372 29.4446V29.4446Z" fill="#373435"/>
<path d="M24.9231 29.5142C24.9034 29.0128 24.9099 28.4104 24.8902 27.909C24.9375 27.2199 24.4624 26.2027 24.276 27.3341C24.2168 27.7531 24.1813 28.1751 24.1697 28.5981C24.386 28.9305 24.6387 29.2378 24.9231 29.5142V29.5142Z" fill="#B9C5EA"/>
<path d="M24.9978 29.6559L24.881 29.5719C24.65 29.3683 24.4482 29.1337 24.2812 28.875C24.2266 28.7978 24.1706 28.7217 24.1132 28.6466L24.0961 28.6256V28.5994C24.1053 28.4681 24.1118 28.3369 24.1171 28.2319C24.127 27.9294 24.1559 27.6278 24.2037 27.3289C24.2273 27.1819 24.3008 26.7356 24.5358 26.7645C24.7983 26.796 24.986 27.4969 24.9571 27.9195C24.9676 28.1636 24.9702 28.4445 24.9742 28.7162C24.9781 28.9879 24.9807 29.2674 24.9912 29.5168L24.9978 29.6559ZM24.2392 28.5771C24.2851 28.6361 24.3376 28.7083 24.3953 28.7897C24.5313 28.9906 24.6827 29.1806 24.8482 29.358C24.8482 29.1506 24.839 28.9288 24.8363 28.7136C24.8363 28.4432 24.8298 28.1623 24.8193 27.9129C24.8521 27.4247 24.6355 26.9115 24.5213 26.8984C24.4964 26.8905 24.4058 26.9692 24.3428 27.3459C24.2958 27.6396 24.2673 27.9359 24.2575 28.2332L24.2392 28.5757V28.5771ZM18.9563 20.2899C19.2976 18.6624 19.6323 17.0349 19.9735 15.4009C20.0273 15.0189 20.1271 14.6777 20.5287 14.6436H21.017C21.311 14.6436 21.479 14.8181 21.5052 15.1686L21.4055 15.8918C21.4186 16.1871 21.5997 16.3538 21.9607 16.3813C22.4489 16.401 22.945 16.4286 23.4333 16.4482C24.1696 16.4955 24.6644 16.8105 24.6145 17.7279L24.1525 20.1521C24.1442 20.3394 24.0806 20.52 23.9699 20.6714C23.8593 20.8227 23.7064 20.9379 23.5304 21.0026C23.3099 20.9895 23.0618 21.0158 22.8413 21.0026C22.4594 21.0223 22.2389 20.8819 22.3793 20.3792C22.5198 19.7426 22.6943 18.9459 22.8413 18.3094C22.8952 17.5521 22.6143 17.5127 22.3163 17.4589C22.0617 17.4248 21.815 17.4589 21.5603 17.4248C21.185 17.4786 21.0445 17.8395 20.9382 18.2424C20.7781 18.9184 20.6101 19.5956 20.45 20.2781C20.3765 20.6469 20.2964 20.8871 20.0221 21.0013H19.2057C18.8977 20.9339 18.8102 20.6929 18.9432 20.2781L18.9563 20.2899Z" fill="#373435"/>
<path d="M22.9807 21.1444H22.8376C22.739 21.161 22.6379 21.1533 22.543 21.122C22.4481 21.0906 22.3622 21.0366 22.2929 20.9646C22.2348 20.8729 22.1998 20.7686 22.1909 20.6605C22.182 20.5523 22.1994 20.4437 22.2417 20.3438L22.3218 19.9789C22.4438 19.425 22.5843 18.8068 22.6998 18.291C22.7405 17.6807 22.5764 17.6505 22.306 17.6006C22.0619 17.5678 21.827 17.6006 21.5645 17.5691C21.302 17.6164 21.1825 17.8776 21.0749 18.2805L20.857 19.1848L20.5867 20.3136C20.4974 20.6916 20.4252 20.9882 20.0761 21.1339L20.0498 21.1444H19.1757C19.1015 21.1322 19.0307 21.1043 18.9682 21.0624C18.9057 21.0205 18.8529 20.9656 18.8135 20.9016C18.7676 20.7983 18.7439 20.6865 18.7439 20.5734C18.7439 20.4604 18.7676 20.3486 18.8135 20.2453L18.8568 20.1141L19.3818 17.5691L19.8346 15.3891C19.8713 15.1266 19.9488 14.5688 20.5158 14.5215H21.0158C21.2311 14.5215 21.5999 14.6055 21.6432 15.1778V15.1922L21.5422 15.9167C21.5513 16.065 21.613 16.2343 21.9674 16.2606L22.7037 16.2934L23.4348 16.3262C23.6216 16.3087 23.81 16.3346 23.9851 16.402C24.1603 16.4693 24.3176 16.5762 24.4446 16.7143C24.5717 16.8524 24.6651 17.018 24.7176 17.1981C24.7701 17.3783 24.7803 17.5681 24.7473 17.7529V17.7713L24.2853 20.1967C24.2723 20.4081 24.198 20.6111 24.0714 20.7808C23.9448 20.9505 23.7715 21.0796 23.5726 21.1522L23.5463 21.1614H23.1854C23.1185 21.1417 23.0489 21.1444 22.9807 21.1444V21.1444ZM22.8389 20.8609H23.507C23.6525 20.8004 23.7776 20.6993 23.8672 20.5697C23.9568 20.4401 24.0072 20.2873 24.0123 20.1298L24.473 17.7096C24.5137 16.9719 24.2 16.6359 23.423 16.5874L22.6932 16.5546L21.9543 16.5204C21.3768 16.4771 21.2744 16.1123 21.2652 15.8983V15.8813L21.365 15.1607C21.3348 14.8247 21.1628 14.7814 21.0172 14.7814H20.5289C20.2874 14.8024 20.1745 14.9691 20.1115 15.4179L19.6561 17.6072C19.4688 18.5111 19.2807 19.4141 19.0917 20.3162L19.0392 20.5695L19.0235 20.5538C19.0135 20.6213 19.0241 20.6904 19.0537 20.7519C19.0724 20.7801 19.0968 20.8041 19.1252 20.8224C19.1537 20.8407 19.1856 20.8529 19.219 20.8583H19.9895C20.1772 20.769 20.2415 20.5957 20.3097 20.2466L20.5814 19.1113L20.7993 18.2044C20.8793 17.9051 21.025 17.3539 21.5382 17.2856H21.5763C21.8152 17.3171 22.0645 17.2856 22.3323 17.3198H22.3507C22.726 17.388 23.0318 17.5101 22.9754 18.3159V18.3383C22.856 18.8554 22.7129 19.4775 22.5961 20.034L22.5134 20.4068C22.4609 20.5944 22.4609 20.7231 22.5134 20.7861C22.5659 20.8491 22.7195 20.8661 22.8323 20.8609H22.8389Z" fill="#FEFEFE"/>
<path d="M12.6315 22.1734C12.9662 20.4382 13.3075 18.7031 13.6435 16.9746C13.6391 16.896 13.6513 16.8175 13.6794 16.744C13.7075 16.6705 13.7507 16.6038 13.8064 16.5482C13.862 16.4925 13.9287 16.4493 14.0022 16.4212C14.0757 16.3931 14.1542 16.3809 14.2328 16.3853H17.3145C17.6081 16.3766 17.8986 16.4481 18.1546 16.5922C18.4106 16.7363 18.6225 16.9474 18.7675 17.2029C18.9738 17.5765 19.0604 18.0044 19.0155 18.4288C18.9496 19.1575 18.6267 19.839 18.1046 20.3516C17.6771 20.7126 17.1534 20.9407 16.5979 21.0079C16.0729 21.021 15.5479 21.0276 15.0229 21.042C14.721 21.0157 14.4205 21.0958 14.347 21.3373C14.2538 21.6654 14.1868 21.9936 14.0923 22.3151C14.0595 22.3875 14.0115 22.452 13.9515 22.5041C13.8914 22.5562 13.8208 22.5947 13.7445 22.617C13.4426 22.6236 13.1355 22.6236 12.8336 22.6301C12.5108 22.6354 12.5777 22.4437 12.6315 22.1734V22.1734ZM14.7814 19.1993C14.868 18.7438 14.9756 18.228 15.0557 17.8264C15.0985 17.7061 15.1789 17.6028 15.2851 17.5318C15.3913 17.4609 15.5175 17.4261 15.645 17.4326C15.9627 17.4101 16.2818 17.4511 16.5835 17.5534C16.7155 17.6067 16.8348 17.6875 16.9333 17.7904C17.0318 17.8932 17.1073 18.0159 17.1548 18.1502C17.2023 18.2844 17.2208 18.4273 17.209 18.5692C17.1971 18.7112 17.1553 18.849 17.0861 18.9735C16.9694 19.1927 16.8105 19.3867 16.6186 19.5444C16.4267 19.7021 16.2056 19.8203 15.9679 19.8923C15.7496 19.9493 15.5238 19.9719 15.2985 19.9592C14.7223 19.8988 14.6751 19.7453 14.7735 19.1953L14.7814 19.1993Z" fill="#373435"/>
<path d="M12.8178 22.7693C12.7619 22.7749 12.7055 22.7678 12.6527 22.7485C12.6 22.7291 12.5523 22.6981 12.5133 22.6577C12.4136 22.5383 12.4477 22.3768 12.4831 22.2062L12.4949 22.1471C12.6796 21.1916 12.8655 20.2361 13.0527 19.2806L13.5029 16.968C13.4973 16.8775 13.5105 16.7868 13.5417 16.7016C13.5728 16.6165 13.6213 16.5387 13.6841 16.4732C13.7554 16.3984 13.8417 16.3395 13.9374 16.3003C14.0331 16.2612 14.1359 16.2427 14.2392 16.2461H17.3144C17.6337 16.2364 17.9495 16.3146 18.2272 16.4722C18.505 16.6299 18.7341 16.8609 18.8894 17.1399C19.1071 17.5363 19.1987 17.9896 19.1519 18.4393C19.0835 19.201 18.7467 19.9136 18.2017 20.4501L18.1859 20.4645C17.7387 20.8409 17.1913 21.0785 16.6109 21.1483C16.3406 21.1562 16.0767 21.1601 15.8142 21.1654L15.0267 21.1824H15.011C14.7997 21.1641 14.5332 21.2034 14.486 21.3793C14.4387 21.5552 14.4007 21.6996 14.3547 21.861C14.3088 22.0224 14.2734 22.1891 14.2235 22.3558C14.1865 22.4494 14.1287 22.5335 14.0546 22.6017C13.9806 22.6699 13.892 22.7204 13.7956 22.7496L13.7707 22.7601H13.7444L13.2916 22.7666L12.8336 22.7732L12.8178 22.7693ZM12.7299 22.4805C12.7624 22.4892 12.7961 22.4923 12.8296 22.4897L13.2916 22.4831H13.7142C13.856 22.4201 13.9374 22.3519 13.9597 22.281C14.0056 22.1196 14.045 21.9594 14.0909 21.798C14.1369 21.6366 14.1723 21.4699 14.2222 21.3045C14.3075 21.0236 14.6159 20.8727 15.0372 20.9108L15.8169 20.8937L16.6044 20.8766C17.1269 20.8101 17.6192 20.5941 18.0219 20.2545C18.5165 19.7665 18.8228 19.1194 18.8868 18.4275C18.9295 18.0281 18.8479 17.6252 18.6532 17.2738C18.5171 17.0422 18.3213 16.8513 18.0863 16.7211C17.8513 16.5909 17.5856 16.5261 17.3171 16.5336H14.2327C14.1685 16.531 14.1044 16.5422 14.0449 16.5664C13.9853 16.5906 13.9317 16.6273 13.8875 16.674C13.8495 16.7128 13.8204 16.7595 13.8023 16.8107C13.7842 16.862 13.7774 16.9165 13.7825 16.9706V17.01L13.3284 19.3423L12.7706 22.2088L12.7574 22.2705C12.7374 22.3413 12.7286 22.4148 12.7312 22.4884L12.7299 22.4805ZM15.4231 20.1023H15.284C15.1732 20.1049 15.063 20.0856 14.9598 20.0452C14.8566 20.0049 14.7625 19.9444 14.6829 19.8673C14.5661 19.7111 14.5766 19.5038 14.6369 19.1743L14.6842 18.9118L14.6934 18.921C14.7393 18.6861 14.7892 18.4446 14.8351 18.2175L14.9309 17.7673C14.9854 17.6215 15.0851 17.4969 15.2155 17.4119C15.3458 17.3269 15.5 17.2858 15.6554 17.2948C15.9869 17.2726 16.3194 17.3173 16.6332 17.4261C16.7718 17.4758 16.8985 17.5539 17.0052 17.6553C17.1119 17.7568 17.1962 17.8794 17.2527 18.0154C17.3152 18.179 17.3439 18.3536 17.3371 18.5286C17.3303 18.7037 17.2882 18.8755 17.2134 19.0339L17.2042 19.0509C17.0789 19.2845 16.9089 19.4911 16.7037 19.6589C16.4985 19.8267 16.2623 19.9524 16.0085 20.0288C15.8162 20.0746 15.6195 20.0992 15.4218 20.1023H15.4231ZM14.8811 19.4303C14.8605 19.5184 14.8702 19.6108 14.9086 19.6927C14.9546 19.7531 15.0832 19.7925 15.3129 19.8174C15.5232 19.8279 15.7338 19.8062 15.9376 19.7531C16.1557 19.6863 16.3586 19.5772 16.5344 19.4319C16.7103 19.2866 16.8559 19.1081 16.9627 18.9066C17.0203 18.7841 17.0528 18.6513 17.0585 18.5161C17.0641 18.3809 17.0427 18.2459 16.9955 18.1191C16.953 18.0187 16.89 17.9283 16.8107 17.8535C16.7314 17.7787 16.6375 17.7212 16.5348 17.6846C16.2503 17.5887 15.9496 17.5508 15.6502 17.5731C15.5509 17.5649 15.4517 17.5902 15.3685 17.6449C15.2853 17.6996 15.2227 17.7806 15.1908 17.8749L15.1107 18.2687C15.0477 18.5784 14.9795 18.9158 14.9204 19.2255L14.8811 19.4303Z" fill="#FEFEFE"/>
<path d="M24.3403 22.1734C24.675 20.4382 25.0163 18.7031 25.3523 16.9746C25.3479 16.896 25.3601 16.8175 25.3882 16.744C25.4163 16.6705 25.4595 16.6038 25.5152 16.5482C25.5708 16.4925 25.6375 16.4493 25.711 16.4212C25.7845 16.3931 25.863 16.3809 25.9416 16.3853H29.0233C29.317 16.3766 29.6074 16.4481 29.8634 16.5922C30.1194 16.7363 30.3313 16.9474 30.4763 17.2029C30.6826 17.5765 30.7692 18.0044 30.7243 18.4288C30.6584 19.1575 30.3355 19.839 29.8135 20.3516C29.3859 20.7126 28.8622 20.9407 28.3067 21.0079C27.7817 21.021 27.2567 21.0276 26.7317 21.042C26.4298 21.0157 26.1293 21.0958 26.0558 21.3373C25.9626 21.6654 25.8956 21.9936 25.8011 22.3151C25.7684 22.3875 25.7203 22.452 25.6603 22.5041C25.6002 22.5562 25.5296 22.5947 25.4533 22.617C25.1515 22.6236 24.8443 22.6236 24.5425 22.6301C24.2196 22.6354 24.2813 22.4437 24.3403 22.1734V22.1734ZM26.4902 19.1993C26.5768 18.7438 26.6845 18.228 26.7645 17.8264C26.8073 17.7061 26.8877 17.6028 26.9939 17.5318C27.1001 17.4609 27.2263 17.4261 27.3538 17.4326C27.6716 17.4101 27.9906 17.4511 28.2923 17.5534C28.4243 17.6067 28.5436 17.6875 28.6421 17.7904C28.7406 17.8932 28.8161 18.0159 28.8636 18.1502C28.9112 18.2844 28.9296 18.4273 28.9178 18.5692C28.9059 18.7112 28.8641 18.849 28.795 18.9735C28.6782 19.1927 28.5194 19.3867 28.3275 19.5444C28.1356 19.7021 27.9144 19.8203 27.6767 19.8923C27.4584 19.9493 27.2326 19.9719 27.0073 19.9592C26.4311 19.8988 26.3839 19.7453 26.4823 19.1953L26.4902 19.1993Z" fill="#373435"/>
<path d="M24.5268 22.7693C24.4709 22.7748 24.4145 22.7676 24.3618 22.7483C24.309 22.729 24.2614 22.698 24.2223 22.6577C24.1225 22.5383 24.1567 22.3768 24.1921 22.2062L24.2039 22.1471C24.3877 21.1943 24.5727 20.2423 24.7591 19.2911L25.2119 16.968C25.2063 16.8775 25.2195 16.7868 25.2506 16.7016C25.2818 16.6165 25.3303 16.5387 25.393 16.4732C25.4644 16.3984 25.5507 16.3395 25.6464 16.3003C25.7421 16.2612 25.8449 16.2427 25.9482 16.2461H29.0234C29.3427 16.2364 29.6584 16.3146 29.9362 16.4722C30.214 16.6299 30.4431 16.8609 30.5984 17.1399C30.816 17.5363 30.9076 17.9896 30.8609 18.4393C30.7924 19.201 30.4556 19.9136 29.9107 20.4501L29.8949 20.4645C29.4477 20.8409 28.9003 21.0785 28.3199 21.1483C28.0495 21.1562 27.7857 21.1601 27.5232 21.1654L26.7357 21.1824H26.72C26.5074 21.1641 26.2422 21.2034 26.195 21.3793C26.1477 21.5552 26.1097 21.6996 26.0637 21.8597C26.0178 22.0198 25.9824 22.1891 25.9325 22.3545C25.8954 22.4481 25.8377 22.5322 25.7636 22.6004C25.6895 22.6686 25.601 22.7191 25.5046 22.7483L25.4797 22.7588H25.4534L25.0006 22.7653L24.5425 22.7719L24.5268 22.7693ZM24.4389 22.4805C24.4714 22.4889 24.5051 22.492 24.5386 22.4897L25.0006 22.4831H25.4232C25.565 22.4201 25.6464 22.3519 25.6687 22.281C25.7146 22.1196 25.7553 21.9581 25.7999 21.798C25.8445 21.6379 25.8813 21.4712 25.9312 21.3058C26.0165 21.0249 26.3249 20.874 26.7462 20.9121L27.5259 20.895L28.3134 20.8779C28.8359 20.8115 29.3282 20.5954 29.7309 20.2558C30.2255 19.7678 30.5318 19.1207 30.5958 18.4288C30.6386 18.0294 30.557 17.6264 30.3622 17.2751C30.2261 17.0435 30.0303 16.8526 29.7953 16.7224C29.5603 16.5922 29.2946 16.5274 29.026 16.5349H25.9417C25.8774 16.5321 25.8133 16.5432 25.7538 16.5675C25.6942 16.5917 25.6406 16.6285 25.5965 16.6753C25.5585 16.7142 25.5294 16.7608 25.5113 16.812C25.4931 16.8633 25.4864 16.9178 25.4915 16.9719V17.0113L25.036 19.3541L24.4809 22.2101L24.4677 22.2718C24.4477 22.3426 24.4389 22.4161 24.4415 22.4897L24.4389 22.4805ZM27.1321 20.1023H26.993C26.8822 20.1049 26.772 20.0856 26.6688 20.0452C26.5656 20.0049 26.4714 19.9444 26.3919 19.8673C26.275 19.7111 26.2855 19.5038 26.3459 19.1743L26.3932 18.9118L26.4024 18.921C26.4483 18.6848 26.4982 18.4419 26.5441 18.2136L26.6399 17.766C26.6938 17.6198 26.7934 17.4949 26.9239 17.4098C27.0544 17.3247 27.2089 17.2839 27.3644 17.2935C27.6958 17.2717 28.0283 17.3163 28.3422 17.4248C28.4808 17.4745 28.6075 17.5526 28.7142 17.654C28.8208 17.7555 28.9052 17.8781 28.9617 18.0141C29.0242 18.1777 29.0528 18.3523 29.0461 18.5273C29.0393 18.7024 28.9972 18.8742 28.9224 19.0326L28.9132 19.0496C28.7879 19.2832 28.6179 19.4898 28.4127 19.6576C28.2075 19.8254 27.9713 19.9511 27.7175 20.0274C27.5257 20.0736 27.3294 20.0987 27.1321 20.1023V20.1023ZM26.5887 19.4316C26.5682 19.5197 26.5779 19.6121 26.6163 19.6941C26.6622 19.7544 26.7909 19.7938 27.0205 19.8188C27.2309 19.8292 27.4415 19.8075 27.6453 19.7544C27.8634 19.6876 28.0662 19.5785 28.2421 19.4332C28.418 19.288 28.5635 19.1094 28.6704 18.9079C28.7279 18.7854 28.7605 18.6527 28.7661 18.5174C28.7718 18.3822 28.7504 18.2472 28.7032 18.1204C28.6606 18.02 28.5977 17.9296 28.5184 17.8548C28.4391 17.78 28.3452 17.7225 28.2425 17.6859C27.958 17.5899 27.6572 17.552 27.3579 17.5744C27.2586 17.5664 27.1596 17.5918 27.0764 17.6465C26.9932 17.7012 26.9306 17.782 26.8985 17.8763L26.8184 18.27C26.7554 18.5811 26.6872 18.9197 26.6281 19.2294L26.5887 19.4316Z" fill="#FEFEFE"/>
<path d="M4.49529 30.0641C4.33834 29.9134 4.20553 29.7394 4.10154 29.5483C3.93955 29.2534 3.86105 28.9199 3.87447 28.5836C3.53322 22.7653 3.83379 17.6768 5.68835 13.5188C5.91541 13.0095 5.95085 12.8559 6.42466 12.621C7.87217 12.0903 9.42489 11.9103 10.9554 12.096C11.0027 11.9647 11.0958 11.8335 11.0552 11.7023C9.67009 11.5914 8.27621 11.7021 6.92604 12.0304C6.00729 12.1774 5.11216 12.3388 4.89166 13.7983C3.03841 18.7057 3.17229 23.3533 3.36522 27.9195C3.36384 28.2489 3.41342 28.5765 3.51222 28.8907C3.87316 30.0418 4.22229 30.0024 4.4966 30.0628L4.49529 30.0641ZM11.613 29.3357C11.613 28.1242 11.5132 26.9128 11.5132 25.6961C11.4642 25.0019 11.3134 24.3187 11.0657 23.6683C10.7972 23.1952 10.4899 22.7452 10.1469 22.323C11.1897 24.3048 11.5144 26.5865 11.0657 28.7805C11.252 28.9669 11.4187 29.1546 11.613 29.3357V29.3357Z" fill="#EBEFFF"/>
<path d="M11.7128 29.5759L11.6197 29.5404C11.2695 29.39 10.9691 29.1433 10.7534 28.8291L10.6628 28.7149H10.7482C10.7678 28.2804 10.76 27.8828 10.7482 27.4969C10.7403 27.09 10.7311 26.67 10.7547 26.208V26.1306L10.8322 26.1424C11.0463 26.1632 11.2486 26.2502 11.4109 26.3913C11.5732 26.5325 11.6875 26.7207 11.7378 26.9299V26.9509L11.7207 28.2043L11.7037 29.4774L11.7128 29.5759ZM10.8847 28.77C11.065 29.0212 11.3014 29.227 11.575 29.3711C11.575 28.9564 11.5855 28.5836 11.5908 28.2017C11.5908 27.8079 11.6013 27.405 11.6078 26.9588C11.5671 26.7904 11.4776 26.6377 11.3507 26.5198C11.2237 26.4019 11.0648 26.3241 10.8938 26.2959C10.8755 26.7212 10.8833 27.1136 10.8938 27.4943C10.8938 27.8972 10.907 28.3133 10.8847 28.77Z" fill="#373435"/>
<path d="M13.4557 31.0498C13.182 30.9417 12.9514 30.7467 12.7995 30.4946C12.7522 28.3316 12.7115 26.1634 12.6682 23.9991L12.9976 24.3272C13.0714 24.7832 13.1052 25.2447 13.0987 25.7066L13.1998 25.9691C13.1979 27.666 13.2833 29.3618 13.4557 31.0498V31.0498Z" fill="#EBEFFF"/>
<path d="M13.5647 31.5302L13.4728 31.5C13.0911 31.3656 12.7751 31.0905 12.5895 30.7309L12.5803 30.7125V30.6862C12.5803 29.9657 12.5934 29.2202 12.5934 28.4904V28.4721L12.6026 28.4563C12.8008 28.0954 12.9714 27.8631 13.1578 27.8998C13.3035 27.9287 13.4676 28.098 13.5778 29.127C13.5778 29.8922 13.5647 30.6718 13.5647 31.4344V31.5302ZM12.7208 30.6771C12.8757 30.9685 13.1238 31.1996 13.4256 31.3333C13.4256 30.6022 13.4321 29.8581 13.4387 29.1362C13.3363 28.1794 13.1893 28.0481 13.1316 28.0363C13.0738 28.0245 12.9609 28.098 12.7378 28.5075C12.7313 29.2294 12.7313 29.9657 12.7208 30.6784V30.6771Z" fill="#373435"/>
<path d="M11.1561 23.6998C11.1602 23.5885 11.1442 23.4773 11.1089 23.3717C11.1627 23.3848 11.2165 23.3914 11.269 23.4058L12.1182 24.0962C12.2365 24.0461 12.3306 23.9519 12.3807 23.8337C12.4344 23.8329 12.4876 23.8442 12.5363 23.867C12.5849 23.8897 12.6278 23.9232 12.6616 23.9649C12.6747 24.5149 12.6353 25.0569 12.6484 25.6056C12.7366 25.6807 12.7937 25.786 12.8086 25.9009C13.1602 25.9149 13.5107 25.9487 13.8586 26.0019C13.8783 26.0886 13.9058 26.1424 13.9255 26.2303C13.533 26.1863 13.1368 26.1863 12.7443 26.2303V26.4784C13.0521 26.4626 13.3607 26.4851 13.663 26.5453L13.6958 26.7264C13.369 26.6873 13.0384 26.6917 12.7128 26.7396C12.76 28.0901 12.76 29.442 12.7128 30.7926C12.6051 30.5379 12.3991 30.2899 12.2849 30.0353C12.4887 28.303 12.5155 26.5545 12.3649 24.8168C12.0536 24.3562 11.6398 23.9739 11.1561 23.6998V23.6998Z" fill="#373435"/>
<path d="M12.5264 30.8753C12.4683 30.7502 12.4003 30.6299 12.323 30.5156C12.2393 30.3899 12.1648 30.2583 12.0999 30.1219L12.0749 30.0681L12.0828 30.009C12.2818 28.3098 12.309 26.5949 12.1642 24.8903C11.8678 24.4785 11.4864 24.1352 11.0459 23.8836L10.9278 23.8074L10.9541 23.6683C10.9545 23.6179 10.9466 23.5678 10.9304 23.52C10.9215 23.4857 10.9136 23.4511 10.9068 23.4163L10.8464 23.0948L11.1641 23.1735L11.2323 23.1879C11.2625 23.1879 11.294 23.1997 11.3242 23.2076L11.3688 23.2194L12.1353 23.8416C12.1577 23.8208 12.1752 23.7952 12.1865 23.7668L12.2377 23.6355H12.3834C12.4712 23.6348 12.5579 23.6548 12.6365 23.6938C12.7152 23.7328 12.7836 23.7897 12.8362 23.8599L12.8716 23.9111V23.9741C12.8782 24.2537 12.8716 24.5346 12.8651 24.8049C12.8651 25.0451 12.8532 25.2932 12.8572 25.5373C12.9025 25.5892 12.9405 25.647 12.9701 25.7092C13.1879 25.7184 13.4032 25.7473 13.6132 25.7736L13.8836 25.8064L14.0306 25.8234L14.0634 25.9678C14.0709 25.9998 14.0801 26.0313 14.0909 26.0623C14.1041 26.103 14.1185 26.145 14.1303 26.1936L14.1946 26.4718L13.9098 26.4495H13.8586L13.9544 26.9745L13.6775 26.9456C13.4296 26.9172 13.1794 26.9132 12.9307 26.9338C12.9716 28.2259 12.9716 29.5189 12.9307 30.8109L12.5264 30.8753ZM12.5081 30.0038L12.533 30.051V29.7636C12.5269 29.8441 12.5186 29.9241 12.5081 30.0038ZM12.2259 24.2813C12.3089 24.3699 12.3857 24.4641 12.4556 24.5634V24.1093C12.3898 24.1798 12.312 24.238 12.2259 24.2813V24.2813Z" fill="#373435"/>
<path d="M11.9712 11.7652C12.5767 11.6857 13.1601 11.4853 13.6866 11.1759C14.7306 10.5913 15.8951 10.2545 17.0899 10.1916C16.5956 9.9683 16.0394 9.92195 15.5149 10.0603C14.2269 10.3729 13.0193 10.9539 11.9712 11.7652V11.7652ZM18.5245 11.0381C21.3986 10.2107 24.4647 10.3491 27.2526 11.4319C24.512 10.2275 21.4363 10.0199 18.5586 10.8452C18.5573 10.9791 18.5245 10.9121 18.5245 11.0381V11.0381Z" fill="#EBEFFF"/>
<defs>
<linearGradient id="paint0_linear_312_48" x1="11.0762" y1="8.21815" x2="19.4444" y2="36.0853" gradientUnits="userSpaceOnUse">
<stop stop-color="#8A9FE0"/>
<stop offset="0.588" stop-color="#7182B8"/>
<stop offset="1" stop-color="#576490"/>
</linearGradient>
</defs>
</svg>
